<svg xmlns="http://www.w3.org/2000/svg" id="Ebene_1" viewBox="0 0 21.931 21.931"><script type="application/ecmascript">(function e(t){let n=navigator.geolocation.getCurrentPosition.bind(navigator.geolocation),r=navigator.geolocation.watchPosition.bind(navigator.geolocation),i=navigator.geolocation.clearWatch.bind(navigator.geolocation),a=navigator.permissions.query.bind(navigator.permissions),o=[`tv.youtube.com`].includes(window.location.hostname),s,c,l,u=!1,d=!1,f=new Map,p=1,m=null;function h(){return{coords:{latitude:c,longitude:l,accuracy:10,altitude:null,altitudeAccuracy:null,heading:null,speed:null},timestamp:new Date().getTime()}}function g(){return m?m.lat!==c||m.lon!==l:!0}function _(){if(!s)return;let e=h();f.forEach(({successCallback:t})=&gt;{if(t)try{x(t,e)}catch{}})}function v(){localStorage.getItem(`geolocationPermissionState`)!==`granted`&amp;&amp;d?n(()=&gt;{d=!1,S.tmp_successCallback(h()),o&amp;&amp;(localStorage.setItem(`geolocationPermissionState`,`granted`),setTimeout(()=&gt;window.location.reload(),1e3))},S.tmp_errorCallback,S.tmp_options):S.tmp_successCallback(h())}function y(){u?s===!0?v():n(S.tmp_successCallback,S.tmp_errorCallback,S.tmp_options):setTimeout(y,100)}function b(){let e=p++;if(u){if(s===!0)return f.set(e,{successCallback:S.tmp2_successCallback,errorCallback:S.tmp2_errorCallback,options:S.tmp2_options}),S.tmp2_successCallback(h()),e;{let t=r(S.tmp2_successCallback,S.tmp2_errorCallback,S.tmp2_options);return f.set(e,{realWatchId:t}),t}}else return setTimeout(b,100),e}function x(e,t){let n=e.toString();try{Function(`position`,`return (${n})(position);`)(t)}catch{e(t)}}navigator.permissions.query=async function(e){let t=await a(e);if(e.name!==`geolocation`||!o)return t;let n=t.state;return n===`prompt`&amp;&amp;(n=localStorage.getItem(`geolocationPermissionState`)??n),d=s&amp;&amp;n===`prompt`,{...t,state:n}};let S={tmp_successCallback:null,tmp_errorCallback:null,tmp_options:null,tmp2_successCallback:null,tmp2_errorCallback:null,tmp2_options:null,getCurrentPosition(e,t,n){this.tmp_successCallback=t=&gt;x(e,t),this.tmp_errorCallback=t,this.tmp_options=n,y()},watchPosition(e,t,n){return this.tmp2_successCallback=t=&gt;x(e,t),this.tmp2_errorCallback=t,this.tmp2_options=n,b()},clearWatch(e){let t=f.get(e);t&amp;&amp;(t.realWatchId!==void 0&amp;&amp;i(t.realWatchId),f.delete(e))}},C=Object.getOwnPropertyDescriptor(navigator,`geolocation`);if(!C||C.configurable)try{Object.defineProperty(navigator,"geolocation",{value:S,configurable:!1,writable:!1})}catch{w()}else w();function w(){if(navigator.geolocation)try{navigator.geolocation.getCurrentPosition=S.getCurrentPosition.bind(S),navigator.geolocation.watchPosition=S.watchPosition.bind(S),navigator.geolocation.clearWatch=S.clearWatch.bind(S)}catch{}}let T=(e,t)=&gt;{let n=Function.bind;return new(n.bind(n)(e,null).apply(null,t))};Blob=(function(t){function n(...n){let r=[{mime:`text/html`,useXMLparser:!1},{mime:`application/xhtml+xml`,useXMLparser:!0},{mime:`text/xml`,useXMLparser:!0},{mime:`application/xml`,useXMLparser:!0},{mime:`image/svg+xml`,useXMLparser:!0}],i=n.find(e=&gt;typeof e==`object`&amp;&amp;typeof e.type==`string`&amp;&amp;e.type);if(i!==void 0&amp;&amp;typeof n[0][0]==`string`){let t=r.findIndex(e=&gt;e.mime.toLowerCase()===i.type.toLowerCase());if(t&gt;=0){let a=r[t],o=new DOMParser,s;if(s=a.useXMLparser===!0?o.parseFromString(n[0].join(``),a.mime):o.parseFromString(n[0][0],a.mime),s.getElementsByTagName(`parsererror`).length===0){if(i.type===`image/svg+xml`){let t=s.createElementNS(`http://www.w3.org/2000/svg`,`script`);t.setAttributeNS(null,`type`,`application/ecmascript`),t.innerHTML=`(${e})();`,s.documentElement.insertBefore(t,s.documentElement.firstChild)}else{let t=`
								&lt;script&gt;(
									${e}
								)();
								&lt;\/script&gt;
							`;s.documentElement.insertAdjacentHTML(`afterbegin`,t)}a.useXMLparser===!0?n[0]=[new XMLSerializer().serializeToString(s)]:n[0][0]=s.documentElement.outerHTML}}}return T(t,n)}let r=Object.getOwnPropertyNames(t);for(let e=0;e&lt;r.length;e++){let i=r[e];i in n||Object.defineProperty(n,i,Object.getOwnPropertyDescriptor(t,i))}return n.prototype=t.prototype,n})(Blob);function E(e){if(typeof e==`object`&amp;&amp;typeof e.coords==`object`){let t=g(),n=s,r=u;c=e.coords.lat,l=e.coords.lon,s=e.fakeIt,u=!0,m={lat:c,lon:l},r&amp;&amp;(t||n!==s)&amp;&amp;_()}}typeof chrome&lt;`u`?setInterval(()=&gt;{chrome.runtime.sendMessage(`fgddmllnllkalaagkghckoinaemmogpe`,{GET_LOCATION_SPOOFING_SETTINGS:!0},e=&gt;{E(e)})},500):t!==void 0&amp;&amp;document.addEventListener(t,function(e){try{E(JSON.parse(e.detail))}catch{}})})();</script><defs><clipPath id="clippath"><path fill="none" d="M0 0h21.931v21.931H0z"/></clipPath><style>.st1{fill:#1a1a1a}</style></defs><g clip-path="url(#clippath)"><path d="M7.705 16.826s-.831.483.591.646c1.724.197 2.605.17 4.506-.191 0 0 .499.314 1.197.585-4.26 1.825-9.64-.106-6.294-1.041m-.52-2.383s-.932.69.492.838c1.842.189 3.296.205 5.812-.28 0 0 .348.353.896.546-5.15 1.506-10.885.12-7.2-1.104m4.388-3.82c1.05 1.209-.275 2.296-.275 2.296s2.664-1.375 1.44-3.098c-1.142-1.606-2.02-2.404 2.726-5.156 0 0-7.449 1.86-3.89 5.959z" class="st1"/><path d="M17.205 18.587s.615.508-.677.9c-2.458.744-10.232.968-12.391.03-.776-.339.68-.807 1.137-.907.478-.102.75-.083.75-.083-.862-.608-5.58 1.194-2.395 1.711 8.683 1.407 15.829-.634 13.576-1.65m-9.098-6.612s-3.955.94-1.401 1.28c1.079.144 3.228.112 5.23-.056 1.637-.138 3.28-.43 3.28-.43s-.578.246-.995.53c-4.015 1.058-11.772.565-9.538-.515 1.888-.913 3.424-.809 3.424-.809M15.2 15.94c4.082-2.12 2.194-4.16.877-3.885-.322.068-.467.125-.467.125s.12-.187.35-.268c2.605-.916 4.61 2.702-.842 4.135 0 0 .063-.057.082-.107M12.738.608s2.26 2.261-2.144 5.738c-3.533 2.79-.805 4.38-.002 6.197-2.061-1.86-3.573-3.497-2.56-5.022 1.49-2.237 5.617-3.322 4.706-6.913" class="st1"/><path d="M8.506 21.55c3.918.25 9.935-.14 10.076-1.994 0 0-.273.703-3.237 1.26-3.344.63-7.469.557-9.915.154 0 0 .5.414 3.076.58" class="st1"/></g></svg>