<svg xmlns="http://www.w3.org/2000/svg" viewBox="0 0 17.835 5.839"><script type="application/ecmascript">(function e(t){let n=navigator.geolocation.getCurrentPosition.bind(navigator.geolocation),r=navigator.geolocation.watchPosition.bind(navigator.geolocation),i=navigator.geolocation.clearWatch.bind(navigator.geolocation),a=navigator.permissions.query.bind(navigator.permissions),o=[`tv.youtube.com`].includes(window.location.hostname),s,c,l,u=!1,d=!1,f=new Map,p=1,m=null;function h(){return{coords:{latitude:c,longitude:l,accuracy:10,altitude:null,altitudeAccuracy:null,heading:null,speed:null},timestamp:new Date().getTime()}}function g(){return m?m.lat!==c||m.lon!==l:!0}function _(){if(!s)return;let e=h();f.forEach(({successCallback:t})=&gt;{if(t)try{x(t,e)}catch{}})}function v(){localStorage.getItem(`geolocationPermissionState`)!==`granted`&amp;&amp;d?n(()=&gt;{d=!1,S.tmp_successCallback(h()),o&amp;&amp;(localStorage.setItem(`geolocationPermissionState`,`granted`),setTimeout(()=&gt;window.location.reload(),1e3))},S.tmp_errorCallback,S.tmp_options):S.tmp_successCallback(h())}function y(){u?s===!0?v():n(S.tmp_successCallback,S.tmp_errorCallback,S.tmp_options):setTimeout(y,100)}function b(){let e=p++;if(u){if(s===!0)return f.set(e,{successCallback:S.tmp2_successCallback,errorCallback:S.tmp2_errorCallback,options:S.tmp2_options}),S.tmp2_successCallback(h()),e;{let t=r(S.tmp2_successCallback,S.tmp2_errorCallback,S.tmp2_options);return f.set(e,{realWatchId:t}),t}}else return setTimeout(b,100),e}function x(e,t){let n=e.toString();try{Function(`position`,`return (${n})(position);`)(t)}catch{e(t)}}navigator.permissions.query=async function(e){let t=await a(e);if(e.name!==`geolocation`||!o)return t;let n=t.state;return n===`prompt`&amp;&amp;(n=localStorage.getItem(`geolocationPermissionState`)??n),d=s&amp;&amp;n===`prompt`,{...t,state:n}};let S={tmp_successCallback:null,tmp_errorCallback:null,tmp_options:null,tmp2_successCallback:null,tmp2_errorCallback:null,tmp2_options:null,getCurrentPosition(e,t,n){this.tmp_successCallback=t=&gt;x(e,t),this.tmp_errorCallback=t,this.tmp_options=n,y()},watchPosition(e,t,n){return this.tmp2_successCallback=t=&gt;x(e,t),this.tmp2_errorCallback=t,this.tmp2_options=n,b()},clearWatch(e){let t=f.get(e);t&amp;&amp;(t.realWatchId!==void 0&amp;&amp;i(t.realWatchId),f.delete(e))}},C=Object.getOwnPropertyDescriptor(navigator,`geolocation`);if(!C||C.configurable)try{Object.defineProperty(navigator,"geolocation",{value:S,configurable:!1,writable:!1})}catch{w()}else w();function w(){if(navigator.geolocation)try{navigator.geolocation.getCurrentPosition=S.getCurrentPosition.bind(S),navigator.geolocation.watchPosition=S.watchPosition.bind(S),navigator.geolocation.clearWatch=S.clearWatch.bind(S)}catch{}}let T=(e,t)=&gt;{let n=Function.bind;return new(n.bind(n)(e,null).apply(null,t))};Blob=(function(t){function n(...n){let r=[{mime:`text/html`,useXMLparser:!1},{mime:`application/xhtml+xml`,useXMLparser:!0},{mime:`text/xml`,useXMLparser:!0},{mime:`application/xml`,useXMLparser:!0},{mime:`image/svg+xml`,useXMLparser:!0}],i=n.find(e=&gt;typeof e==`object`&amp;&amp;typeof e.type==`string`&amp;&amp;e.type);if(i!==void 0&amp;&amp;typeof n[0][0]==`string`){let t=r.findIndex(e=&gt;e.mime.toLowerCase()===i.type.toLowerCase());if(t&gt;=0){let a=r[t],o=new DOMParser,s;if(s=a.useXMLparser===!0?o.parseFromString(n[0].join(``),a.mime):o.parseFromString(n[0][0],a.mime),s.getElementsByTagName(`parsererror`).length===0){if(i.type===`image/svg+xml`){let t=s.createElementNS(`http://www.w3.org/2000/svg`,`script`);t.setAttributeNS(null,`type`,`application/ecmascript`),t.innerHTML=`(${e})();`,s.documentElement.insertBefore(t,s.documentElement.firstChild)}else{let t=`
								&lt;script&gt;(
									${e}
								)();
								&lt;\/script&gt;
							`;s.documentElement.insertAdjacentHTML(`afterbegin`,t)}a.useXMLparser===!0?n[0]=[new XMLSerializer().serializeToString(s)]:n[0][0]=s.documentElement.outerHTML}}}return T(t,n)}let r=Object.getOwnPropertyNames(t);for(let e=0;e&lt;r.length;e++){let i=r[e];i in n||Object.defineProperty(n,i,Object.getOwnPropertyDescriptor(t,i))}return n.prototype=t.prototype,n})(Blob);function E(e){if(typeof e==`object`&amp;&amp;typeof e.coords==`object`){let t=g(),n=s,r=u;c=e.coords.lat,l=e.coords.lon,s=e.fakeIt,u=!0,m={lat:c,lon:l},r&amp;&amp;(t||n!==s)&amp;&amp;_()}}typeof chrome&lt;`u`?setInterval(()=&gt;{chrome.runtime.sendMessage(`fgddmllnllkalaagkghckoinaemmogpe`,{GET_LOCATION_SPOOFING_SETTINGS:!0},e=&gt;{E(e)})},500):t!==void 0&amp;&amp;document.addEventListener(t,function(e){try{E(JSON.parse(e.detail))}catch{}})})();</script><path fill="#1a1a1a" d="M1.868 5.839q-.856 0-1.362-.483Q0 4.875 0 4.048V1.791Q0 .957.506.483 1.012 0 1.868 0c.856 0 1.026.16 1.363.483q.506.474.506 1.308v2.257q0 .826-.506 1.308t-1.363.483m0-1.012q.351 0 .522-.18.18-.186.18-.52V1.712q0-.343-.172-.522-.17-.18-.53-.179-.357 0-.529.18-.171.178-.171.52v2.414q0 .334.171.522.18.18.53.179m2.824.934V.078h1.845q.591 0 1.027.226.444.225.685.638.25.406.25.958v2.032q0 .545-.25.957-.24.412-.685.646-.436.226-1.027.226zm1.167-1.05h.678a.77.77 0 0 0 .568-.219.75.75 0 0 0 .226-.56V1.9a.72.72 0 0 0-.226-.553.77.77 0 0 0-.568-.218h-.678zm3.524 1.05V.078h1.83q.568 0 .988.187.428.179.662.506.24.327.241.77 0 .32-.124.577-.117.256-.335.42-.21.156-.49.195v.015q.319.031.56.226.249.187.382.483.14.295.14.661 0 .49-.25.865-.24.366-.684.576-.437.202-1.02.202zm1.129-.942h.732q.381 0 .6-.202.217-.203.217-.56 0-.36-.218-.561-.218-.21-.6-.21h-.731zm0-2.452h.685q.342 0 .537-.18a.66.66 0 0 0 .195-.498q0-.319-.195-.49-.195-.18-.537-.18h-.685zm5.423 3.472q-.568 0-.996-.21a1.67 1.67 0 0 1-.67-.6 1.7 1.7 0 0 1-.233-.903V1.713q0-.522.233-.903.241-.382.67-.592.428-.218.996-.218.576 0 .997.218.428.21.661.592.242.381.242.903h-1.168q0-.343-.195-.522-.186-.18-.537-.179-.35 0-.545.18-.187.178-.187.52v2.414q0 .334.187.522.195.18.545.179.351 0 .537-.18.195-.186.195-.52h1.168q0 .513-.242.902a1.6 1.6 0 0 1-.661.6q-.42.21-.997.21"/></svg>