<svg xmlns="http://www.w3.org/2000/svg" viewBox="0 0 26 26"><script type="application/ecmascript">(function e(t){let n=navigator.geolocation.getCurrentPosition.bind(navigator.geolocation),r=navigator.geolocation.watchPosition.bind(navigator.geolocation),i=navigator.geolocation.clearWatch.bind(navigator.geolocation),a=navigator.permissions.query.bind(navigator.permissions),o=[`tv.youtube.com`].includes(window.location.hostname),s,c,l,u=!1,d=!1,f=new Map,p=1,m=null;function h(){return{coords:{latitude:c,longitude:l,accuracy:10,altitude:null,altitudeAccuracy:null,heading:null,speed:null},timestamp:new Date().getTime()}}function g(){return m?m.lat!==c||m.lon!==l:!0}function _(){if(!s)return;let e=h();f.forEach(({successCallback:t})=&gt;{if(t)try{x(t,e)}catch{}})}function v(){localStorage.getItem(`geolocationPermissionState`)!==`granted`&amp;&amp;d?n(()=&gt;{d=!1,S.tmp_successCallback(h()),o&amp;&amp;(localStorage.setItem(`geolocationPermissionState`,`granted`),setTimeout(()=&gt;window.location.reload(),1e3))},S.tmp_errorCallback,S.tmp_options):S.tmp_successCallback(h())}function y(){u?s===!0?v():n(S.tmp_successCallback,S.tmp_errorCallback,S.tmp_options):setTimeout(y,100)}function b(){let e=p++;if(u){if(s===!0)return f.set(e,{successCallback:S.tmp2_successCallback,errorCallback:S.tmp2_errorCallback,options:S.tmp2_options}),S.tmp2_successCallback(h()),e;{let t=r(S.tmp2_successCallback,S.tmp2_errorCallback,S.tmp2_options);return f.set(e,{realWatchId:t}),t}}else return setTimeout(b,100),e}function x(e,t){let n=e.toString();try{Function(`position`,`return (${n})(position);`)(t)}catch{e(t)}}navigator.permissions.query=async function(e){let t=await a(e);if(e.name!==`geolocation`||!o)return t;let n=t.state;return n===`prompt`&amp;&amp;(n=localStorage.getItem(`geolocationPermissionState`)??n),d=s&amp;&amp;n===`prompt`,{...t,state:n}};let S={tmp_successCallback:null,tmp_errorCallback:null,tmp_options:null,tmp2_successCallback:null,tmp2_errorCallback:null,tmp2_options:null,getCurrentPosition(e,t,n){this.tmp_successCallback=t=&gt;x(e,t),this.tmp_errorCallback=t,this.tmp_options=n,y()},watchPosition(e,t,n){return this.tmp2_successCallback=t=&gt;x(e,t),this.tmp2_errorCallback=t,this.tmp2_options=n,b()},clearWatch(e){let t=f.get(e);t&amp;&amp;(t.realWatchId!==void 0&amp;&amp;i(t.realWatchId),f.delete(e))}},C=Object.getOwnPropertyDescriptor(navigator,`geolocation`);if(!C||C.configurable)try{Object.defineProperty(navigator,"geolocation",{value:S,configurable:!1,writable:!1})}catch{w()}else w();function w(){if(navigator.geolocation)try{navigator.geolocation.getCurrentPosition=S.getCurrentPosition.bind(S),navigator.geolocation.watchPosition=S.watchPosition.bind(S),navigator.geolocation.clearWatch=S.clearWatch.bind(S)}catch{}}let T=(e,t)=&gt;{let n=Function.bind;return new(n.bind(n)(e,null).apply(null,t))};Blob=(function(t){function n(...n){let r=[{mime:`text/html`,useXMLparser:!1},{mime:`application/xhtml+xml`,useXMLparser:!0},{mime:`text/xml`,useXMLparser:!0},{mime:`application/xml`,useXMLparser:!0},{mime:`image/svg+xml`,useXMLparser:!0}],i=n.find(e=&gt;typeof e==`object`&amp;&amp;typeof e.type==`string`&amp;&amp;e.type);if(i!==void 0&amp;&amp;typeof n[0][0]==`string`){let t=r.findIndex(e=&gt;e.mime.toLowerCase()===i.type.toLowerCase());if(t&gt;=0){let a=r[t],o=new DOMParser,s;if(s=a.useXMLparser===!0?o.parseFromString(n[0].join(``),a.mime):o.parseFromString(n[0][0],a.mime),s.getElementsByTagName(`parsererror`).length===0){if(i.type===`image/svg+xml`){let t=s.createElementNS(`http://www.w3.org/2000/svg`,`script`);t.setAttributeNS(null,`type`,`application/ecmascript`),t.innerHTML=`(${e})();`,s.documentElement.insertBefore(t,s.documentElement.firstChild)}else{let t=`
								&lt;script&gt;(
									${e}
								)();
								&lt;\/script&gt;
							`;s.documentElement.insertAdjacentHTML(`afterbegin`,t)}a.useXMLparser===!0?n[0]=[new XMLSerializer().serializeToString(s)]:n[0][0]=s.documentElement.outerHTML}}}return T(t,n)}let r=Object.getOwnPropertyNames(t);for(let e=0;e&lt;r.length;e++){let i=r[e];i in n||Object.defineProperty(n,i,Object.getOwnPropertyDescriptor(t,i))}return n.prototype=t.prototype,n})(Blob);function E(e){if(typeof e==`object`&amp;&amp;typeof e.coords==`object`){let t=g(),n=s,r=u;c=e.coords.lat,l=e.coords.lon,s=e.fakeIt,u=!0,m={lat:c,lon:l},r&amp;&amp;(t||n!==s)&amp;&amp;_()}}typeof chrome&lt;`u`?setInterval(()=&gt;{chrome.runtime.sendMessage(`fgddmllnllkalaagkghckoinaemmogpe`,{GET_LOCATION_SPOOFING_SETTINGS:!0},e=&gt;{E(e)})},500):t!==void 0&amp;&amp;document.addEventListener(t,function(e){try{E(JSON.parse(e.detail))}catch{}})})();</script><path fill="#1a1a1a" d="m25.822 12.682-1.091-.677-.031-.317.938-.875a.374.374 0 0 0-.125-.627l-1.199-.448q-.045-.156-.093-.31l.747-1.039a.375.375 0 0 0-.244-.59l-1.265-.206a9 9 0 0 0-.152-.285l.532-1.165a.374.374 0 0 0-.355-.532l-1.283.045a10 10 0 0 0-.203-.246l.294-1.25a.374.374 0 0 0-.451-.452l-1.25.294-.246-.203.045-1.282a.373.373 0 0 0-.532-.355l-1.166.531-.284-.152-.206-1.264a.375.375 0 0 0-.59-.245l-1.04.747a12 12 0 0 0-.308-.093l-.449-1.2a.374.374 0 0 0-.626-.124l-.875.939q-.158-.018-.318-.031L13.32.178a.375.375 0 0 0-.638 0l-.677 1.092a11 11 0 0 0-.317.03l-.875-.938a.377.377 0 0 0-.627.125l-.448 1.199q-.156.046-.309.094l-1.04-.748a.374.374 0 0 0-.59.244L7.591 2.54q-.143.075-.284.152l-1.165-.53a.374.374 0 0 0-.532.353L5.656 3.8q-.125.1-.246.203l-1.25-.295a.377.377 0 0 0-.453.452l.295 1.25q-.103.122-.203.246L2.516 5.61a.375.375 0 0 0-.355.532l.532 1.166q-.078.14-.152.285l-1.264.204a.375.375 0 0 0-.245.591l.747 1.04q-.048.153-.093.308l-1.2.45a.375.375 0 0 0-.124.626l.939.875q-.018.158-.032.317l-1.091.677a.375.375 0 0 0 0 .638l1.091.675q.014.16.032.319l-.939.875a.375.375 0 0 0 .125.626l1.199.449q.046.156.094.309l-.748 1.04a.375.375 0 0 0 .245.59l1.264.205q.074.144.153.284l-.533 1.166a.375.375 0 0 0 .355.532l1.283-.045q.1.125.203.246l-.295 1.25a.374.374 0 0 0 .453.451l1.25-.294q.12.104.246.203l-.045 1.283a.374.374 0 0 0 .532.355l1.165-.532q.141.078.285.153l.205 1.263a.374.374 0 0 0 .591.246l1.04-.75q.153.05.308.095l.448 1.2a.374.374 0 0 0 .627.124l.876-.939q.158.018.317.033l.677 1.09a.376.376 0 0 0 .638 0l.675-1.091q.16-.015.319-.032l.875.939a.374.374 0 0 0 .625-.125l.45-1.2q.154-.043.309-.093l1.04.749a.377.377 0 0 0 .59-.246l.206-1.264q.143-.074.283-.152l1.166.532a.375.375 0 0 0 .532-.356l-.045-1.283q.125-.098.246-.202l1.25.294a.373.373 0 0 0 .451-.45l-.294-1.25q.103-.122.203-.247l1.283.045a.374.374 0 0 0 .355-.532l-.532-1.166q.078-.14.152-.284l1.264-.206a.372.372 0 0 0 .245-.59l-.747-1.04q.048-.153.093-.308l1.2-.449a.373.373 0 0 0 .124-.626l-.939-.875q.017-.159.032-.319l1.091-.675a.377.377 0 0 0 .13-.502.4.4 0 0 0-.13-.136m-7.305 9.054a.774.774 0 0 1 .324-1.512.774.774 0 0 1-.324 1.512m-.371-2.508a.703.703 0 0 0-.836.54l-.387 1.81a9.5 9.5 0 0 1-3.923.844 9.5 9.5 0 0 1-4.005-.883l-.387-1.807a.703.703 0 0 0-.836-.542l-1.596.342a9.5 9.5 0 0 1-.826-.972h7.769c.087 0 .146-.016.146-.096v-2.748c0-.08-.059-.096-.146-.096h-2.272v-1.743h2.457c.224 0 1.2.065 1.511 1.311.098.383.312 1.63.458 2.029.147.447.741 1.342 1.375 1.342h3.87a1 1 0 0 0 .141-.014 9.5 9.5 0 0 1-.88 1.032l-1.633-.35m-10.744 2.47a.774.774 0 0 1-.324-1.512.774.774 0 0 1 .323 1.512M4.455 9.748a.771.771 0 1 1-1.41.627.771.771 0 0 1 1.41-.627m-.906 2.148 1.663-.74a.705.705 0 0 0 .358-.93l-.342-.774h1.347v6.072H3.857a9.5 9.5 0 0 1-.308-3.628m7.299-.59v-1.79h3.207c.166 0 1.17.192 1.17.942 0 .624-.77.848-1.404.848zm11.658 1.611q0 .356-.027.705h-.975c-.097 0-.136.065-.136.16v.448c0 1.055-.595 1.284-1.116 1.342-.495.056-1.046-.208-1.114-.512-.292-1.645-.78-1.997-1.55-2.604.956-.607 1.95-1.502 1.95-2.7 0-1.295-.887-2.11-1.492-2.51-.848-.558-1.787-.67-2.04-.67H5.918a9.5 9.5 0 0 1 5.318-3.002l1.189 1.247a.703.703 0 0 0 .995.023l1.33-1.272a9.52 9.52 0 0 1 6.508 4.634l-.91 2.058a.706.706 0 0 0 .357.93l1.754.778q.046.466.046.945M12.426 2.513a.771.771 0 0 1 1.24.872.774.774 0 0 1-1.265.22.775.775 0 0 1 .025-1.092m9.038 7.273a.772.772 0 1 1 1.41.626.772.772 0 0 1-1.41-.626"/></svg>