<svg width="165" height="47" viewBox="0 0 165 47" fill="none" xmlns="http://www.w3.org/2000/svg">
<g clip-path="url(#clip0_105_4154)">
<path d="M47.3094 23.5003C47.3094 36.6297 36.7799 47.2737 23.7917 47.2737C10.8035 47.2737 0.273925 36.6837 0.273925 23.5003C0.273924 10.3168 10.8035 -0.273161 23.7917 -0.273161C36.7799 -0.273162 47.3094 10.3708 47.3094 23.5003Z" fill="#1A1A1A"/>
<path d="M14.0635 29.2011C14.0635 34.6042 18.4463 39.0347 23.7913 39.0347C29.1897 39.0347 33.5191 34.6042 33.5191 29.2011C33.5191 23.7981 29.1362 19.3676 23.7913 19.3676C18.4463 19.3676 14.0635 23.7981 14.0635 29.2011Z" fill="#FFF100"/>
<path d="M20.2905 11.5057L20.2905 16.1792L27.2925 16.1792L27.2925 11.5057C27.2925 9.5511 25.7251 7.9666 23.7915 7.9666C21.858 7.9666 20.2905 9.55109 20.2905 11.5057Z" fill="#FFF100"/>
<path d="M88.0311 27.2945C88.0311 29.3774 87.4364 31.1203 85.2195 31.1203C83.0025 31.1203 82.4077 29.3774 82.4077 27.2945V18.4287H78.4062V28.149C78.4062 31.941 81.4884 34.1516 85.2195 34.1516C88.9504 34.1516 92.0326 31.941 92.0326 28.149V18.4287L88.0311 18.4287V27.2945Z" fill="#1D1D1B"/>
<path d="M64.4 13.1157L58.1978 13.1157V33.7757H64.4C71.0364 33.7757 76.0281 31.6379 76.0281 23.4318C76.0281 15.2246 71.0364 13.1157 64.4 13.1157ZM64.2276 30.5846H62.3236V16.3074H64.2276C68.0356 16.3074 71.7579 17.2477 71.7579 23.4318C71.7579 29.6715 68.0356 30.5846 64.2276 30.5846Z" fill="#1D1D1B"/>
<path d="M102.228 31.0967C100.035 31.0967 98.4771 29.3018 98.4771 26.0817C98.4771 22.89 100.122 21.152 102.198 21.152C103.728 21.152 105.112 22.2064 105.43 23.6884L109.238 23.6884C108.69 19.8982 105.458 18.1028 102.198 18.1028C97.5539 18.1028 94.4087 21.4654 94.4087 26.1385C94.4087 30.7838 97.3802 34.1465 102.026 34.1465C105.257 34.1465 108.459 32.7502 109.382 28.5602H105.575C105.027 30.3841 103.612 31.0967 102.228 31.0967Z" fill="#1D1D1B"/>
<path d="M125.825 18.4447L121.353 18.4447L115.698 24.6004V13.1157H111.717V33.7757H115.698V29.1594L117.602 27.1363L121.671 33.7757H126.143L120.257 24.3154L125.825 18.4447Z" fill="#1D1D1B"/>
<path d="M133.987 13.1157L127.785 13.1157V33.7757H133.987C140.624 33.7757 145.615 31.6379 145.615 23.4318C145.615 15.2246 140.624 13.1157 133.987 13.1157ZM133.815 30.5846H131.911V16.3074H133.815C137.623 16.3074 141.345 17.2477 141.345 23.4318C141.345 29.6715 137.623 30.5846 133.815 30.5846Z" fill="#1D1D1B"/>
<path d="M161.884 22.8617C162.952 22.1781 164.25 20.4394 164.25 18.5021C164.25 14.2559 160.297 13.1157 156.633 13.1157L148.498 13.1157V33.7757H156.979C161.279 33.7757 165 32.1234 165 27.6774C165 24.8281 163.499 23.6311 161.884 22.8617ZM152.623 16.3074H156.892C158.826 16.3074 160.009 17.2761 160.009 18.9006C160.009 20.7245 158.855 21.6364 156.892 21.6364H152.623V16.3074ZM157.181 30.5846H152.623V24.7134H157.009C159.577 24.7134 160.788 25.74 160.788 27.6774C160.788 29.587 159.605 30.5847 157.181 30.5846Z" fill="#1D1D1B"/>
</g>
<defs>
<clipPath id="clip0_105_4154">
<rect width="165" height="47" fill="white"/>
</clipPath>
</defs>
</svg>
