<svg width="91" height="47" viewBox="0 0 91 47" fill="none" xmlns="http://www.w3.org/2000/svg">
<g clip-path="url(#clip0_105_4171)">
<path d="M13.1215 46.9998C5.87486 46.9998 0 36.4784 0 23.5001C0 10.5219 5.84504 0.000488281 13.1215 0.000488281C20.398 0.000488281 26.243 10.5219 26.243 23.5001C26.243 36.4784 20.3681 46.9998 13.1215 46.9998Z" fill="#1A1A1A"/>
<path d="M9.97538 13.7798C6.9932 13.7798 4.54785 18.1593 4.54785 23.5001C4.54785 28.8944 6.9932 33.2204 9.97538 33.2204C12.9575 33.2204 15.4029 28.841 15.4029 23.5001C15.4029 18.1593 12.9575 13.7798 9.97538 13.7798Z" fill="#FFF100"/>
<path d="M19.7421 20.0017H17.1626V26.9983H19.7421C20.8209 26.9983 21.6955 25.4321 21.6955 23.5C21.6955 21.568 20.8209 20.0017 19.7421 20.0017Z" fill="#FFF100"/>
<path d="M48.55 27.2945C48.55 29.3774 48.222 31.1203 46.9993 31.1203C45.7766 31.1203 45.4486 29.3774 45.4486 27.2945V18.4287H43.2417V28.149C43.2417 31.941 44.9416 34.1516 46.9993 34.1516C49.057 34.1516 50.7568 31.941 50.7568 28.149V18.4287H48.55V27.2945Z" fill="#1D1D1B"/>
<path d="M35.5173 13.1157H32.0967V33.7757H35.5173C39.1774 33.7757 41.9304 31.6379 41.9304 23.4318C41.9304 15.2246 39.1774 13.1157 35.5173 13.1157ZM35.4222 30.5846H34.3722V16.3074H35.4222C37.5224 16.3074 39.5753 17.2477 39.5753 23.4318C39.5753 29.6715 37.5224 30.5846 35.4222 30.5846Z" fill="#1D1D1B"/>
<path d="M56.3796 31.0967C55.1704 31.0967 54.3112 29.3018 54.3112 26.0817C54.3112 22.89 55.2183 21.152 56.3634 21.152C57.2071 21.152 57.9706 22.2064 58.1459 23.6884H60.2461C59.9439 19.8982 58.1614 18.1028 56.3634 18.1028C53.802 18.1028 52.0674 21.4654 52.0674 26.1385C52.0674 30.7838 53.7062 34.1465 56.2683 34.1465C58.0502 34.1465 59.8165 32.7502 60.3256 28.5602H58.2255C57.9234 30.3841 57.1431 31.0967 56.3796 31.0967Z" fill="#1D1D1B"/>
<path d="M69.3941 18.4447H66.9277L63.8092 24.6004V13.1157H61.6133V33.7757H63.8092V29.1594L64.8593 27.1363L67.1031 33.7757H69.5694L66.3234 24.3154L69.3941 18.4447Z" fill="#1D1D1B"/>
<path d="M73.8958 13.1157H70.4751V33.7757H73.8958C77.5558 33.7757 80.3088 31.6379 80.3088 23.4318C80.3088 15.2246 77.5558 13.1157 73.8958 13.1157ZM73.8007 30.5846H72.7506V16.3074H73.8007C75.9008 16.3074 77.9537 17.2477 77.9537 23.4318C77.9537 29.6715 75.9008 30.5846 73.8007 30.5846Z" fill="#1D1D1B"/>
<path d="M89.2813 22.8617C89.8701 22.1781 90.5863 20.4394 90.5863 18.5021C90.5863 14.2559 88.4059 13.1157 86.3853 13.1157H81.8984V33.7757H86.5762C88.9475 33.7757 90.9997 32.1234 90.9997 27.6774C90.9997 24.8281 90.1722 23.6311 89.2813 22.8617ZM84.1739 16.3074H86.5283C87.5946 16.3074 88.2474 17.2761 88.2474 18.9006C88.2474 20.7245 87.6108 21.6364 86.5283 21.6364H84.1739V16.3074ZM86.6875 30.5846H84.1739V24.7134H86.5924C88.0087 24.7134 88.677 25.74 88.677 27.6774C88.677 29.587 88.0242 30.5847 86.6875 30.5846Z" fill="#1D1D1B"/>
</g>
<defs>
<clipPath id="clip0_105_4171">
<rect width="91" height="47" fill="white"/>
</clipPath>
</defs>
</svg>
