<svg width="750" height="322" viewBox="0 0 750 322" fill="none" xmlns="http://www.w3.org/2000/svg">
<g clip-path="url(#clip0_105_4118)">
<path d="M0 15C0 6.71573 6.71573 0 15 0H735C743.284 0 750 6.71573 750 15V306.875C750 315.159 743.284 321.875 735 321.875H15C6.71571 321.875 0 315.159 0 306.875V15Z" fill="url(#paint0_linear_105_4118)"/>
<path d="M121.876 -369.997L760.296 -370C779.28 -370 794.671 -354.609 794.671 -335.625L794.671 -246.398C794.671 -227.413 779.28 -212.023 760.296 -212.023L565.612 -212.023C546.627 -212.023 531.237 -196.633 531.237 -177.648L531.237 124.374C531.237 143.359 515.847 158.749 496.862 158.749L357.5 158.75C338.515 158.75 323.125 174.141 323.125 193.125L323.125 340.625" stroke="#F0DF09" stroke-width="1.87038" stroke-linejoin="round"/>
<path d="M-65 61.2499L57.8124 61.25C76.7972 61.25 92.1875 76.6403 92.1874 95.6251L92.1871 196.25C92.187 215.235 107.577 230.625 126.562 230.625L197.188 230.625C216.173 230.625 231.563 215.235 231.563 196.25L231.563 -14.5274C231.563 -33.5122 246.953 -48.9024 265.938 -48.9024L454.374 -48.9024C473.359 -48.9024 488.749 -64.2926 488.749 -83.2774L488.749 -201.875" stroke="#F0DF09" stroke-width="1.87038" stroke-linejoin="round"/>
<path d="M-5.62499 279.69C-6.14148 279.69 -6.56018 280.108 -6.56019 280.625C-6.56019 281.141 -6.1415 281.56 -5.62501 281.56L-5.625 280.625L-5.62499 279.69ZM104.724 281.287C105.089 280.922 105.089 280.33 104.724 279.964L98.7723 274.013C98.4071 273.648 97.815 273.648 97.4498 274.013C97.0845 274.378 97.0845 274.97 97.4498 275.335L102.74 280.626L97.4497 285.916C97.0845 286.281 97.0845 286.873 97.4497 287.238C97.8149 287.604 98.407 287.604 98.7722 287.238L104.724 281.287ZM-5.625 280.625L-5.62501 281.56L104.062 281.561L104.062 280.626L104.063 279.691L-5.62499 279.69L-5.625 280.625Z" fill="#F0DF09"/>
<path d="M743.75 111.31C744.266 111.31 744.685 110.891 744.685 110.375C744.685 109.858 744.266 109.44 743.75 109.44L743.75 110.375L743.75 111.31ZM643.714 109.714C643.349 110.079 643.349 110.671 643.714 111.036L649.665 116.988C650.03 117.353 650.623 117.353 650.988 116.988C651.353 116.623 651.353 116.03 650.988 115.665L645.698 110.375L650.988 105.085C651.353 104.72 651.353 104.127 650.988 103.762C650.623 103.397 650.03 103.397 649.665 103.762L643.714 109.714ZM743.75 110.375L743.75 109.44L644.375 109.44L644.375 110.375L644.375 111.31L743.75 111.31L743.75 110.375Z" fill="#F0DF09"/>
<path d="M506.25 523.75C510.047 523.75 513.125 520.672 513.125 516.875L513.125 284.375C513.125 265.39 528.515 250 547.5 250L710.625 250L797.188 250" stroke="#F0DF09" stroke-width="1.87038" stroke-linejoin="round"/>
<path d="M563.655 64.25V54.625H565.038V55.78H565.353L565.108 56.2C565.108 55.6633 565.248 55.2375 565.528 54.9225C565.819 54.6075 566.21 54.45 566.7 54.45C567.237 54.45 567.651 54.6483 567.943 55.045C568.234 55.4417 568.38 56.0017 568.38 56.725L567.908 55.78H568.643L568.31 56.2C568.31 55.6633 568.456 55.2375 568.748 54.9225C569.051 54.6075 569.448 54.45 569.938 54.45C570.544 54.45 571.011 54.6775 571.337 55.1325C571.676 55.5875 571.845 56.1883 571.845 56.935V64.25H570.393V56.9175C570.393 56.5208 570.305 56.2117 570.13 55.99C569.967 55.7683 569.722 55.6575 569.395 55.6575C569.08 55.6575 568.829 55.7683 568.643 55.99C568.468 56.2 568.38 56.5033 568.38 56.9V64.25H567.12V56.9175C567.12 56.5092 567.027 56.2 566.84 55.99C566.665 55.7683 566.414 55.6575 566.088 55.6575C565.761 55.6575 565.516 55.7683 565.353 55.99C565.189 56.2 565.108 56.5033 565.108 56.9V64.25H563.655ZM578.243 64.425C577.485 64.425 576.82 64.2733 576.248 63.97C575.688 63.6667 575.251 63.2408 574.936 62.6925C574.632 62.1325 574.481 61.485 574.481 60.75V58.125C574.481 57.3783 574.632 56.7308 574.936 56.1825C575.251 55.6342 575.688 55.2083 576.248 54.905C576.82 54.6017 577.485 54.45 578.243 54.45C579.001 54.45 579.661 54.6017 580.221 54.905C580.792 55.2083 581.23 55.6342 581.533 56.1825C581.848 56.7308 582.006 57.3783 582.006 58.125V59.8225H576.021V60.75C576.021 61.5083 576.213 62.0917 576.598 62.5C576.983 62.8967 577.531 63.095 578.243 63.095C578.85 63.095 579.34 62.99 579.713 62.78C580.086 62.5583 580.314 62.2317 580.396 61.8H581.971C581.866 62.605 581.469 63.2467 580.781 63.725C580.104 64.1917 579.258 64.425 578.243 64.425ZM580.466 58.7725V58.125C580.466 57.3667 580.273 56.7833 579.888 56.375C579.515 55.9667 578.966 55.7625 578.243 55.7625C577.531 55.7625 576.983 55.9667 576.598 56.375C576.213 56.7833 576.021 57.3667 576.021 58.125V58.6325H580.588L580.466 58.7725ZM584.641 64.25V54.625H586.024V55.78H586.339L586.094 56.2C586.094 55.6633 586.234 55.2375 586.514 54.9225C586.805 54.6075 587.196 54.45 587.686 54.45C588.223 54.45 588.637 54.6483 588.929 55.045C589.22 55.4417 589.366 56.0017 589.366 56.725L588.894 55.78H589.629L589.296 56.2C589.296 55.6633 589.442 55.2375 589.734 54.9225C590.037 54.6075 590.434 54.45 590.924 54.45C591.53 54.45 591.997 54.6775 592.324 55.1325C592.662 55.5875 592.831 56.1883 592.831 56.935V64.25H591.379V56.9175C591.379 56.5208 591.291 56.2117 591.116 55.99C590.953 55.7683 590.708 55.6575 590.381 55.6575C590.066 55.6575 589.815 55.7683 589.629 55.99C589.454 56.2 589.366 56.5033 589.366 56.9V64.25H588.106V56.9175C588.106 56.5092 588.013 56.2 587.826 55.99C587.651 55.7683 587.4 55.6575 587.074 55.6575C586.747 55.6575 586.502 55.7683 586.339 55.99C586.175 56.2 586.094 56.5033 586.094 56.9V64.25H584.641ZM599.229 64.39C598.459 64.39 597.794 64.2442 597.234 63.9525C596.674 63.6608 596.237 63.2408 595.922 62.6925C595.619 62.1325 595.467 61.4733 595.467 60.715V58.16C595.467 57.39 595.619 56.7308 595.922 56.1825C596.237 55.6342 596.674 55.2142 597.234 54.9225C597.794 54.6308 598.459 54.485 599.229 54.485C599.999 54.485 600.664 54.6308 601.224 54.9225C601.784 55.2142 602.216 55.6342 602.519 56.1825C602.834 56.7308 602.992 57.3842 602.992 58.1425V60.715C602.992 61.4733 602.834 62.1325 602.519 62.6925C602.216 63.2408 601.784 63.6608 601.224 63.9525C600.664 64.2442 599.999 64.39 599.229 64.39ZM599.229 62.99C599.918 62.99 600.454 62.7975 600.839 62.4125C601.224 62.0275 601.417 61.4617 601.417 60.715V58.16C601.417 57.4133 601.224 56.8475 600.839 56.4625C600.454 56.0775 599.918 55.885 599.229 55.885C598.553 55.885 598.016 56.0775 597.619 56.4625C597.234 56.8475 597.042 57.4133 597.042 58.16V60.715C597.042 61.4617 597.234 62.0275 597.619 62.4125C598.016 62.7975 598.553 62.99 599.229 62.99ZM606.415 64.25V54.625H607.955V56.4625H608.323L607.815 57.6C607.815 56.5617 608.037 55.78 608.48 55.255C608.935 54.7183 609.606 54.45 610.493 54.45C611.508 54.45 612.313 54.7708 612.908 55.4125C613.514 56.0425 613.818 56.9 613.818 57.985V58.5625H612.243V58.125C612.243 57.3667 612.056 56.7892 611.683 56.3925C611.321 55.9842 610.802 55.78 610.125 55.78C609.46 55.78 608.935 55.9842 608.55 56.3925C608.177 56.8008 607.99 57.3783 607.99 58.125V64.25H606.415ZM618.081 67.4L619.498 63.655L615.928 54.625H617.678L619.918 60.575C620 60.7733 620.076 61.0125 620.146 61.2925C620.216 61.5608 620.274 61.7883 620.321 61.975C620.367 61.7883 620.426 61.5608 620.496 61.2925C620.566 61.0125 620.636 60.7733 620.706 60.575L622.806 54.625H624.503L619.761 67.4H618.081ZM626.509 66V64.6875H634.909V66H626.509Z" fill="#F3E223"/>
<path d="M394 288.8C393.242 288.8 392.577 288.648 392.005 288.345C391.445 288.042 391.008 287.616 390.693 287.067C390.389 286.507 390.238 285.86 390.238 285.125V282.5C390.238 281.753 390.389 281.106 390.693 280.557C391.008 280.009 391.445 279.583 392.005 279.28C392.577 278.977 393.242 278.825 394 278.825C394.758 278.825 395.418 278.977 395.978 279.28C396.549 279.583 396.987 280.009 397.29 280.557C397.605 281.106 397.763 281.753 397.763 282.5V284.197H391.778V285.125C391.778 285.883 391.97 286.467 392.355 286.875C392.74 287.272 393.288 287.47 394 287.47C394.607 287.47 395.097 287.365 395.47 287.155C395.843 286.933 396.071 286.607 396.153 286.175H397.728C397.623 286.98 397.226 287.622 396.538 288.1C395.861 288.567 395.015 288.8 394 288.8ZM396.223 283.147V282.5C396.223 281.742 396.03 281.158 395.645 280.75C395.272 280.342 394.723 280.137 394 280.137C393.288 280.137 392.74 280.342 392.355 280.75C391.97 281.158 391.778 281.742 391.778 282.5V283.007H396.345L396.223 283.147ZM400.853 288.625V279H402.428V280.837H402.761L402.428 281.205C402.428 280.447 402.656 279.863 403.111 279.455C403.566 279.035 404.196 278.825 405.001 278.825C405.969 278.825 406.739 279.122 407.311 279.717C407.882 280.312 408.168 281.123 408.168 282.15V288.625H406.593V282.325C406.593 281.637 406.406 281.112 406.033 280.75C405.671 280.377 405.176 280.19 404.546 280.19C403.892 280.19 403.373 280.388 402.988 280.785C402.615 281.182 402.428 281.753 402.428 282.5V288.625H400.853ZM415.056 288.8C414.286 288.8 413.61 288.654 413.026 288.362C412.455 288.071 412.011 287.651 411.696 287.102C411.381 286.542 411.224 285.883 411.224 285.125V282.5C411.224 281.73 411.381 281.071 411.696 280.522C412.011 279.974 412.455 279.554 413.026 279.262C413.61 278.971 414.286 278.825 415.056 278.825C416.165 278.825 417.057 279.122 417.734 279.717C418.41 280.312 418.766 281.123 418.801 282.15H417.226C417.191 281.532 416.981 281.059 416.596 280.732C416.223 280.394 415.71 280.225 415.056 280.225C414.368 280.225 413.82 280.423 413.411 280.82C413.003 281.205 412.799 281.759 412.799 282.482V285.125C412.799 285.848 413.003 286.408 413.411 286.805C413.82 287.202 414.368 287.4 415.056 287.4C415.71 287.4 416.223 287.231 416.596 286.892C416.981 286.554 417.191 286.082 417.226 285.475H418.801C418.766 286.502 418.41 287.312 417.734 287.907C417.057 288.503 416.165 288.8 415.056 288.8ZM422.172 288.625V279H423.712V280.837H424.079L423.572 281.975C423.572 280.937 423.794 280.155 424.237 279.63C424.692 279.093 425.363 278.825 426.249 278.825C427.264 278.825 428.069 279.146 428.664 279.788C429.271 280.417 429.574 281.275 429.574 282.36V282.937H427.999V282.5C427.999 281.742 427.813 281.164 427.439 280.767C427.078 280.359 426.559 280.155 425.882 280.155C425.217 280.155 424.692 280.359 424.307 280.767C423.934 281.176 423.747 281.753 423.747 282.5V288.625H422.172ZM433.838 291.775L435.255 288.03L431.685 279H433.435L435.675 284.95C435.757 285.148 435.833 285.387 435.903 285.667C435.973 285.936 436.031 286.163 436.078 286.35C436.124 286.163 436.183 285.936 436.253 285.667C436.323 285.387 436.393 285.148 436.463 284.95L438.563 279H440.26L435.518 291.775H433.838ZM442.826 291.775V279H444.401V280.837H444.716L444.401 281.205C444.401 280.47 444.64 279.892 445.118 279.472C445.608 279.041 446.25 278.825 447.043 278.825C448.012 278.825 448.782 279.146 449.353 279.788C449.937 280.417 450.228 281.287 450.228 282.395V285.212C450.228 285.947 450.094 286.583 449.826 287.12C449.569 287.657 449.202 288.071 448.723 288.362C448.257 288.654 447.697 288.8 447.043 288.8C446.262 288.8 445.626 288.584 445.136 288.152C444.646 287.721 444.401 287.143 444.401 286.42L444.716 286.787H444.366L444.401 288.975V291.775H442.826ZM446.518 287.435C447.183 287.435 447.702 287.237 448.076 286.84C448.461 286.443 448.653 285.872 448.653 285.125V282.5C448.653 281.753 448.461 281.182 448.076 280.785C447.702 280.388 447.183 280.19 446.518 280.19C445.877 280.19 445.363 280.394 444.978 280.802C444.593 281.211 444.401 281.777 444.401 282.5V285.125C444.401 285.848 444.593 286.414 444.978 286.822C445.363 287.231 445.877 287.435 446.518 287.435ZM458.009 288.625C457.181 288.625 456.533 288.403 456.066 287.96C455.611 287.517 455.384 286.892 455.384 286.087V280.435H452.671V279H455.384V276.287H456.959V279H460.809V280.435H456.959V286.087C456.959 286.822 457.309 287.19 458.009 287.19H460.634V288.625H458.009ZM467.452 288.8C466.694 288.8 466.029 288.648 465.457 288.345C464.897 288.042 464.46 287.616 464.145 287.067C463.841 286.507 463.69 285.86 463.69 285.125V282.5C463.69 281.753 463.841 281.106 464.145 280.557C464.46 280.009 464.897 279.583 465.457 279.28C466.029 278.977 466.694 278.825 467.452 278.825C468.21 278.825 468.87 278.977 469.43 279.28C470.001 279.583 470.439 280.009 470.742 280.557C471.057 281.106 471.215 281.753 471.215 282.5V284.197H465.23V285.125C465.23 285.883 465.422 286.467 465.807 286.875C466.192 287.272 466.74 287.47 467.452 287.47C468.059 287.47 468.549 287.365 468.922 287.155C469.295 286.933 469.523 286.607 469.605 286.175H471.18C471.075 286.98 470.678 287.622 469.99 288.1C469.313 288.567 468.467 288.8 467.452 288.8ZM469.675 283.147V282.5C469.675 281.742 469.482 281.158 469.097 280.75C468.724 280.342 468.175 280.137 467.452 280.137C466.74 280.137 466.192 280.342 465.807 280.75C465.422 281.158 465.23 281.742 465.23 282.5V283.007H469.797L469.675 283.147ZM477.385 288.8C476.429 288.8 475.653 288.479 475.058 287.837C474.474 287.196 474.183 286.327 474.183 285.23V282.412C474.183 281.304 474.474 280.429 475.058 279.788C475.641 279.146 476.417 278.825 477.385 278.825C478.179 278.825 478.814 279.041 479.293 279.472C479.771 279.904 480.01 280.482 480.01 281.205L479.695 280.837H480.045L480.01 278.65V275.85H481.585V288.625H480.01V286.787H479.695L480.01 286.42C480.01 287.155 479.771 287.738 479.293 288.17C478.814 288.59 478.179 288.8 477.385 288.8ZM477.91 287.435C478.564 287.435 479.077 287.231 479.45 286.822C479.824 286.414 480.01 285.848 480.01 285.125V282.5C480.01 281.777 479.824 281.211 479.45 280.802C479.077 280.394 478.564 280.19 477.91 280.19C477.245 280.19 476.72 280.388 476.335 280.785C475.95 281.182 475.758 281.753 475.758 282.5V285.125C475.758 285.872 475.95 286.443 476.335 286.84C476.72 287.237 477.245 287.435 477.91 287.435Z" fill="#F3E223"/>
<path d="M41.6125 244.475C39.9558 244.067 38.6667 243.262 37.745 242.06C36.8233 240.858 36.3625 239.388 36.3625 237.65V234.5C36.3625 233.357 36.5725 232.324 36.9925 231.402C37.4242 230.469 38.0308 229.682 38.8125 229.04C39.6058 228.398 40.5392 227.943 41.6125 227.675V229.162C40.8658 229.337 40.2183 229.676 39.67 230.177C39.1217 230.667 38.6958 231.28 38.3925 232.015C38.0892 232.75 37.9375 233.578 37.9375 234.5V237.65C37.9375 238.548 38.0833 239.365 38.375 240.1C38.6783 240.835 39.1042 241.447 39.6525 241.937C40.2125 242.416 40.8658 242.743 41.6125 242.918V244.475ZM45.6307 244.475V242.918C46.389 242.743 47.0423 242.416 47.5907 241.937C48.139 241.447 48.559 240.835 48.8507 240.1C49.154 239.365 49.3057 238.548 49.3057 237.65V234.5C49.3057 233.578 49.154 232.75 48.8507 232.015C48.5473 231.28 48.1215 230.667 47.5732 230.177C47.0248 229.676 46.3773 229.337 45.6307 229.162V227.675C46.7157 227.943 47.649 228.398 48.4307 229.04C49.2123 229.682 49.8132 230.469 50.2332 231.402C50.6648 232.324 50.8807 233.357 50.8807 234.5V237.65C50.8807 239.388 50.4198 240.858 49.4982 242.06C48.5765 243.262 47.2873 244.067 45.6307 244.475ZM57.0863 245.175L58.4863 239.732H60.7613L58.4863 245.175H57.0863ZM59.1863 235.2C58.8013 235.2 58.4863 235.077 58.2413 234.832C57.9963 234.587 57.8738 234.272 57.8738 233.887C57.8738 233.514 57.9963 233.205 58.2413 232.96C58.498 232.703 58.813 232.575 59.1863 232.575H59.5363C59.9097 232.575 60.2188 232.703 60.4638 232.96C60.7205 233.205 60.8488 233.514 60.8488 233.887C60.8488 234.272 60.7263 234.587 60.4813 234.832C60.2363 235.077 59.9213 235.2 59.5363 235.2H59.1863Z" fill="#F3E223"/>
<path d="M713.375 304.425C712.932 304.425 712.576 304.297 712.308 304.04C712.051 303.783 711.923 303.439 711.923 303.007C711.923 302.552 712.051 302.191 712.308 301.922C712.576 301.654 712.932 301.52 713.375 301.52C713.818 301.52 714.168 301.654 714.425 301.922C714.693 302.191 714.828 302.552 714.828 303.007C714.828 303.439 714.693 303.783 714.425 304.04C714.168 304.297 713.818 304.425 713.375 304.425ZM721.786 302.605L720.526 301.73L721.471 300.365C721.622 300.143 721.803 299.927 722.013 299.717C722.223 299.496 722.433 299.292 722.643 299.105C722.865 298.907 723.057 298.737 723.221 298.597L723.168 298.475C722.946 298.452 722.696 298.428 722.416 298.405C722.136 298.37 721.85 298.323 721.558 298.265C721.278 298.195 721.016 298.119 720.771 298.037L719.231 297.477L719.756 296.025L721.296 296.585C721.541 296.667 721.791 296.783 722.048 296.935C722.316 297.075 722.573 297.227 722.818 297.39C723.063 297.542 723.273 297.687 723.448 297.827L723.536 297.757C723.477 297.536 723.413 297.285 723.343 297.005C723.273 296.713 723.215 296.416 723.168 296.112C723.121 295.797 723.098 295.506 723.098 295.237V293.575H724.638V295.237C724.638 295.506 724.615 295.797 724.568 296.112C724.521 296.416 724.463 296.713 724.393 297.005C724.323 297.285 724.253 297.536 724.183 297.757L724.271 297.827C724.457 297.687 724.667 297.542 724.901 297.39C725.146 297.227 725.396 297.075 725.653 296.935C725.921 296.783 726.178 296.667 726.423 296.585L727.981 296.025L728.506 297.477L726.948 298.037C726.715 298.119 726.452 298.195 726.161 298.265C725.881 298.323 725.601 298.37 725.321 298.405C725.041 298.428 724.79 298.452 724.568 298.475L724.498 298.615C724.673 298.755 724.866 298.924 725.076 299.122C725.297 299.309 725.507 299.513 725.706 299.735C725.916 299.945 726.091 300.155 726.231 300.365L727.193 301.73L725.933 302.605L724.971 301.24C724.831 301.03 724.691 300.791 724.551 300.522C724.422 300.254 724.3 299.986 724.183 299.717C724.078 299.449 723.991 299.21 723.921 299H723.798C723.728 299.21 723.635 299.449 723.518 299.717C723.413 299.986 723.291 300.254 723.151 300.522C723.022 300.791 722.882 301.03 722.731 301.24L721.786 302.605Z" fill="#F3E223"/>
<path d="M274.625 40.05C274.182 40.05 273.826 39.9217 273.558 39.665C273.301 39.4083 273.173 39.0642 273.173 38.6325C273.173 38.1775 273.301 37.8158 273.558 37.5475C273.826 37.2792 274.182 37.145 274.625 37.145C275.068 37.145 275.418 37.2792 275.675 37.5475C275.943 37.8158 276.078 38.1775 276.078 38.6325C276.078 39.0642 275.943 39.4083 275.675 39.665C275.418 39.9217 275.068 40.05 274.625 40.05ZM283.036 38.23L281.776 37.355L282.721 35.99C282.872 35.7683 283.053 35.5525 283.263 35.3425C283.473 35.1208 283.683 34.9167 283.893 34.73C284.115 34.5317 284.307 34.3625 284.471 34.2225L284.418 34.1C284.196 34.0767 283.946 34.0533 283.666 34.03C283.386 33.995 283.1 33.9483 282.808 33.89C282.528 33.82 282.266 33.7442 282.021 33.6625L280.481 33.1025L281.006 31.65L282.546 32.21C282.791 32.2917 283.041 32.4083 283.298 32.56C283.566 32.7 283.823 32.8517 284.068 33.015C284.313 33.1667 284.523 33.3125 284.698 33.4525L284.786 33.3825C284.727 33.1608 284.663 32.91 284.593 32.63C284.523 32.3383 284.465 32.0408 284.418 31.7375C284.371 31.4225 284.348 31.1308 284.348 30.8625V29.2H285.888V30.8625C285.888 31.1308 285.865 31.4225 285.818 31.7375C285.771 32.0408 285.713 32.3383 285.643 32.63C285.573 32.91 285.503 33.1608 285.433 33.3825L285.521 33.4525C285.707 33.3125 285.917 33.1667 286.151 33.015C286.396 32.8517 286.646 32.7 286.903 32.56C287.171 32.4083 287.428 32.2917 287.673 32.21L289.231 31.65L289.756 33.1025L288.198 33.6625C287.965 33.7442 287.702 33.82 287.411 33.89C287.131 33.9483 286.851 33.995 286.571 34.03C286.291 34.0533 286.04 34.0767 285.818 34.1L285.748 34.24C285.923 34.38 286.116 34.5492 286.326 34.7475C286.547 34.9342 286.757 35.1383 286.956 35.36C287.166 35.57 287.341 35.78 287.481 35.99L288.443 37.355L287.183 38.23L286.221 36.865C286.081 36.655 285.941 36.4158 285.801 36.1475C285.672 35.8792 285.55 35.6108 285.433 35.3425C285.328 35.0742 285.241 34.835 285.171 34.625H285.048C284.978 34.835 284.885 35.0742 284.768 35.3425C284.663 35.6108 284.541 35.8792 284.401 36.1475C284.272 36.4158 284.132 36.655 283.981 36.865L283.036 38.23Z" fill="#F3E223"/>
<path d="M644.738 168.85C643.081 168.442 641.792 167.637 640.87 166.435C639.948 165.233 639.488 163.763 639.488 162.025V158.875C639.488 157.732 639.698 156.699 640.118 155.777C640.549 154.844 641.156 154.057 641.938 153.415C642.731 152.773 643.664 152.318 644.738 152.05V153.537C643.991 153.712 643.343 154.051 642.795 154.552C642.247 155.042 641.821 155.655 641.518 156.39C641.214 157.125 641.063 157.953 641.063 158.875V162.025C641.063 162.923 641.208 163.74 641.5 164.475C641.803 165.21 642.229 165.822 642.778 166.312C643.338 166.791 643.991 167.118 644.738 167.293V168.85ZM648.756 168.85V167.293C649.514 167.118 650.167 166.791 650.716 166.312C651.264 165.822 651.684 165.21 651.976 164.475C652.279 163.74 652.431 162.923 652.431 162.025V158.875C652.431 157.953 652.279 157.125 651.976 156.39C651.672 155.655 651.246 155.042 650.698 154.552C650.15 154.051 649.502 153.712 648.756 153.537V152.05C649.841 152.318 650.774 152.773 651.556 153.415C652.337 154.057 652.938 154.844 653.358 155.777C653.79 156.699 654.006 157.732 654.006 158.875V162.025C654.006 163.763 653.545 165.233 652.623 166.435C651.701 167.637 650.412 168.442 648.756 168.85ZM660.211 169.55L661.611 164.107H663.886L661.611 169.55H660.211ZM662.311 159.575C661.926 159.575 661.611 159.452 661.366 159.207C661.121 158.962 660.999 158.647 660.999 158.262C660.999 157.889 661.121 157.58 661.366 157.335C661.623 157.078 661.938 156.95 662.311 156.95H662.661C663.035 156.95 663.344 157.078 663.589 157.335C663.845 157.58 663.974 157.889 663.974 158.262C663.974 158.647 663.851 158.962 663.606 159.207C663.361 159.452 663.046 159.575 662.661 159.575H662.311Z" fill="#F3E223"/>
<rect x="188.774" y="219.976" width="20.0476" height="43.7976" rx="10.0238" transform="rotate(90 188.774 219.976)" fill="#D4C50B" stroke="#F0DF09" stroke-width="1.20238"/>
</g>
<defs>
<linearGradient id="paint0_linear_105_4118" x1="366.875" y1="-53.125" x2="366.875" y2="391.875" gradientUnits="userSpaceOnUse">
<stop stop-color="#FDEF00"/>
<stop offset="0.938633" stop-color="#FFFAA3"/>
</linearGradient>
<clipPath id="clip0_105_4118">
<path d="M0 15C0 6.71573 6.71573 0 15 0H735C743.284 0 750 6.71573 750 15V306.875C750 315.159 743.284 321.875 735 321.875H15C6.71571 321.875 0 315.159 0 306.875V15Z" fill="white"/>
</clipPath>
</defs>
</svg>
