<svg width="277" height="119" viewBox="0 0 277 119" fill="none" xmlns="http://www.w3.org/2000/svg">
<g clip-path="url(#clip0_105_3873)">
<rect width="276.387" height="119" rx="15" fill="#0D0D0D"/>
<path d="M59.0605 91V90.5H60.0605V91H59.5605H59.0605ZM59.5605 119H59.0605V118H59.5605H60.0605V119H59.5605ZM59.5605 116H59.0605V114H59.5605H60.0605V116H59.5605ZM59.5605 112H59.0605V110H59.5605H60.0605V112H59.5605ZM59.5605 108H59.0605V106H59.5605H60.0605V108H59.5605ZM59.5605 104H59.0605V102H59.5605H60.0605V104H59.5605ZM59.5605 100H59.0605V98H59.5605H60.0605V100H59.5605ZM59.5605 96H59.0605V94H59.5605H60.0605V96H59.5605ZM59.5605 92H59.0605V91H59.5605H60.0605V92H59.5605Z" fill="#B2B2B2"/>
<path d="M27.877 59.4668H8.34465e-07" stroke="#B2B2B2" stroke-dasharray="2 2"/>
<path d="M59.0625 28.001L59.0626 28.501L60.0626 28.5009L60.0625 28.0009L59.5625 28.001L59.0625 28.001ZM59.0606 1.00007L59.0607 1.50007L60.0607 1.5L60.0606 1L59.5606 1.00003L59.0606 1.00007ZM60.0608 3.00007L60.0607 2.50007L59.0607 2.50014L59.0608 3.00014L59.5608 3.0001L60.0608 3.00007ZM59.0609 5.00021L59.0609 5.50021L60.0609 5.50014L60.0609 5.00014L59.5609 5.00017L59.0609 5.00021ZM60.061 7.00021L60.061 6.50021L59.061 6.50028L59.061 7.00028L59.561 7.00024L60.061 7.00021ZM59.0612 9.00035L59.0612 9.50035L60.0612 9.50028L60.0612 9.00028L59.5612 9.00031L59.0612 9.00035ZM60.0613 11.0003L60.0613 10.5003L59.0613 10.5004L59.0613 11.0004L59.5613 11.0004L60.0613 11.0003ZM59.0615 13.0005L59.0615 13.5005L60.0615 13.5004L60.0615 13.0004L59.5615 13.0005L59.0615 13.0005ZM60.0616 15.0005L60.0616 14.5005L59.0616 14.5006L59.0616 15.0006L59.5616 15.0005L60.0616 15.0005ZM59.0617 17.0006L59.0618 17.5006L60.0618 17.5006L60.0617 17.0006L59.5617 17.0006L59.0617 17.0006ZM60.0619 19.0006L60.0619 18.5006L59.0619 18.5007L59.0619 19.0007L59.5619 19.0007L60.0619 19.0006ZM59.062 21.0008L59.0621 21.5008L60.0621 21.5007L60.062 21.0007L59.562 21.0007L59.062 21.0008ZM60.0622 23.0008L60.0621 22.5008L59.0621 22.5008L59.0622 23.0008L59.5622 23.0008L60.0622 23.0008ZM59.0623 25.0009L59.0623 25.5009L60.0623 25.5008L60.0623 25.0008L59.5623 25.0009L59.0623 25.0009ZM60.0624 27.0009L60.0624 26.5009L59.0624 26.501L59.0624 27.001L59.5624 27.0009L60.0624 27.0009ZM59.5605 0L59.0605 3.52418e-05L59.0606 1.00007L59.5606 1.00003L60.0606 1L60.0605 -3.52418e-05L59.5605 0ZM59.5608 3.0001L59.0608 3.00014L59.0609 5.00021L59.5609 5.00017L60.0609 5.00014L60.0608 3.00007L59.5608 3.0001ZM59.561 7.00024L59.061 7.00028L59.0612 9.00035L59.5612 9.00031L60.0612 9.00028L60.061 7.00021L59.561 7.00024ZM59.5613 11.0004L59.0613 11.0004L59.0615 13.0005L59.5615 13.0005L60.0615 13.0004L60.0613 11.0003L59.5613 11.0004ZM59.5616 15.0005L59.0616 15.0006L59.0617 17.0006L59.5617 17.0006L60.0617 17.0006L60.0616 15.0005L59.5616 15.0005ZM59.5619 19.0007L59.0619 19.0007L59.062 21.0008L59.562 21.0007L60.062 21.0007L60.0619 19.0006L59.5619 19.0007ZM59.5622 23.0008L59.0622 23.0008L59.0623 25.0009L59.5623 25.0009L60.0623 25.0008L60.0622 23.0008L59.5622 23.0008ZM59.5624 27.0009L59.0624 27.001L59.0625 28.001L59.5625 28.001L60.0625 28.0009L60.0624 27.0009L59.5624 27.0009Z" fill="#B2B2B2"/>
<path d="M59.5598 90.9996C41.9609 90.9996 27.6934 76.8964 27.6934 59.5001C27.6934 42.1038 41.8884 28.0005 59.5598 28.0005C77.2313 28.0005 91.4264 42.1038 91.4264 59.5001C91.4264 76.8964 77.1589 90.9996 59.5598 90.9996Z" fill="#FFF100"/>
<path d="M51.9189 46.4706C44.6765 46.4706 38.7378 52.341 38.7378 59.5C38.7378 66.7306 44.6765 72.5294 51.9189 72.5294C59.1613 72.5294 65.1001 66.659 65.1001 59.5C65.1001 52.341 59.1613 46.4706 51.9189 46.4706Z" fill="#1A1A1A"/>
<path d="M75.6381 54.8108H69.3735V64.1892H75.6381C78.258 64.1892 80.3819 62.0898 80.3819 59.5C80.3819 56.9103 78.258 54.8108 75.6381 54.8108Z" fill="#1A1A1A"/>
<path d="M145.601 64.5863C145.601 67.3783 144.805 69.7145 141.836 69.7145C138.866 69.7145 138.07 67.3783 138.07 64.5863V52.7023H132.71V65.7316C132.71 70.8145 136.838 73.7776 141.836 73.7776C146.833 73.7776 150.961 70.8145 150.961 65.7316V52.7023H145.601V64.5863Z" fill="#F2F2F2"/>
<path d="M113.95 45.5806H105.643V73.2738H113.95C122.839 73.2738 129.525 70.4082 129.525 59.4086C129.525 48.4074 122.839 45.5806 113.95 45.5806ZM113.719 68.9964H111.169V49.8588H113.719C118.82 49.8588 123.805 51.1192 123.805 59.4086C123.805 67.7724 118.82 68.9964 113.719 68.9964Z" fill="#F2F2F2"/>
<path d="M164.617 69.6829C161.68 69.6829 159.593 67.277 159.593 62.9607C159.593 58.6825 161.796 56.3527 164.577 56.3527C166.626 56.3527 168.48 57.7661 168.906 59.7526H174.007C173.273 54.6722 168.944 52.2655 164.577 52.2655C158.357 52.2655 154.144 56.7728 154.144 63.0368C154.144 69.2635 158.124 73.7709 164.346 73.7709C168.674 73.7709 172.963 71.8993 174.2 66.2829H169.099C168.366 68.7276 166.471 69.6829 164.617 69.6829Z" fill="#F2F2F2"/>
<path d="M196.222 52.7237H190.233L182.659 60.975V45.5806H177.326V73.2738H182.659V67.086L185.209 64.3741L190.658 73.2738H196.648L188.765 60.5929L196.222 52.7237Z" fill="#F2F2F2"/>
<path d="M207.155 45.5806H198.848V73.2738H207.155C216.044 73.2738 222.73 70.4082 222.73 59.4086C222.73 48.4074 216.044 45.5806 207.155 45.5806ZM206.925 68.9964H204.374V49.8588H206.925C212.025 49.8588 217.011 51.1192 217.011 59.4086C217.011 67.7724 212.025 68.9964 206.925 68.9964Z" fill="#F2F2F2"/>
<path d="M244.52 58.6444C245.95 57.7281 247.689 55.3975 247.689 52.8006C247.689 47.1089 242.394 45.5806 237.487 45.5806H226.59V73.2738H237.951C243.709 73.2738 248.693 71.059 248.693 65.0994C248.693 61.2802 246.684 59.6757 244.52 58.6444ZM232.117 49.8588H237.834C240.424 49.8588 242.009 51.1573 242.009 53.3349C242.009 55.7796 240.463 57.0019 237.834 57.0019H232.117V49.8588ZM238.221 68.9964H232.117V61.1264H237.99C241.429 61.1264 243.053 62.5025 243.053 65.0994C243.053 67.6591 241.467 68.9964 238.221 68.9964Z" fill="#F2F2F2"/>
<path d="M98.1836 73.2744L98.1836 73.7744L99.1836 73.7744L99.1836 73.2744L98.6836 73.2744L98.1836 73.2744ZM98.6836 45.5811L98.1836 45.5811L98.1836 46.5701L98.6836 46.5701L99.1836 46.5701L99.1836 45.5811L98.6836 45.5811ZM98.6836 48.5482L98.1836 48.5482L98.1836 50.5263L98.6836 50.5263L99.1836 50.5263L99.1836 48.5482L98.6836 48.5482ZM98.6836 52.5044L98.1836 52.5044L98.1836 54.4825L98.6836 54.4825L99.1836 54.4825L99.1836 52.5044L98.6836 52.5044ZM98.6836 56.4606L98.1836 56.4606L98.1836 58.4387L98.6836 58.4387L99.1836 58.4387L99.1836 56.4606L98.6836 56.4606ZM98.6836 60.4168L98.1836 60.4168L98.1836 62.3949L98.6836 62.3949L99.1836 62.3949L99.1836 60.4168L98.6836 60.4168ZM98.6836 64.373L98.1836 64.373L98.1836 66.3511L98.6836 66.3511L99.1836 66.3511L99.1836 64.373L98.6836 64.373ZM98.6836 68.3292L98.1836 68.3292L98.1836 70.3073L98.6836 70.3073L99.1836 70.3073L99.1836 68.3292L98.6836 68.3292ZM98.6836 72.2854L98.1836 72.2854L98.1836 73.2744L98.6836 73.2744L99.1836 73.2744L99.1836 72.2854L98.6836 72.2854Z" fill="#B2B2B2"/>
<path d="M248.693 58.9648L248.193 58.9648L248.193 59.9648L248.693 59.9648L248.693 59.4648L248.693 58.9648ZM276.387 59.4648L276.387 58.9648L275.398 58.9648L275.398 59.4648L275.398 59.9648L276.387 59.9648L276.387 59.4648ZM273.42 59.4648L273.42 58.9648L271.441 58.9648L271.441 59.4648L271.441 59.9648L273.42 59.9648L273.42 59.4648ZM269.463 59.4648L269.463 58.9648L267.485 58.9648L267.485 59.4648L267.485 59.9648L269.463 59.9648L269.463 59.4648ZM265.507 59.4648L265.507 58.9648L263.529 58.9648L263.529 59.4648L263.529 59.9648L265.507 59.9648L265.507 59.4648ZM261.551 59.4648L261.551 58.9648L259.573 58.9648L259.573 59.4648L259.573 59.9648L261.551 59.9648L261.551 59.4648ZM257.595 59.4648L257.595 58.9648L255.617 58.9648L255.617 59.4648L255.617 59.9648L257.595 59.9648L257.595 59.4648ZM253.639 59.4648L253.639 58.9648L251.661 58.9648L251.661 59.4648L251.661 59.9648L253.639 59.9648L253.639 59.4648ZM249.682 59.4648L249.682 58.9648L248.693 58.9648L248.693 59.4648L248.693 59.9648L249.682 59.9648L249.682 59.4648Z" fill="#B2B2B2"/>
</g>
<defs>
<clipPath id="clip0_105_3873">
<rect width="276.387" height="119" fill="white"/>
</clipPath>
</defs>
</svg>
