<svg width="221" height="63" viewBox="0 0 221 63" fill="none" xmlns="http://www.w3.org/2000/svg">
<g clip-path="url(#clip0_105_3803)">
<path d="M31.8665 62.9997C14.2675 62.9997 0 48.8965 0 31.5001C0 14.1038 14.1951 0.000610352 31.8665 0.000610352C49.538 0.000610352 63.733 14.1038 63.733 31.5001C63.733 48.8965 49.4655 62.9997 31.8665 62.9997Z" fill="#FFF100"/>
<path d="M24.2256 18.4706C16.9831 18.4706 11.0444 24.3409 11.0444 31.5C11.0444 38.7306 16.9831 44.5293 24.2256 44.5293C31.468 44.5293 37.4067 38.659 37.4067 31.5C37.4067 24.3409 31.468 18.4706 24.2256 18.4706Z" fill="#1A1A1A"/>
<path d="M47.9447 26.8108H41.6802V36.1892H47.9447C50.5647 36.1892 52.6885 34.0898 52.6885 31.5C52.6885 28.9102 50.5647 26.8108 47.9447 26.8108Z" fill="#1A1A1A"/>
<path d="M117.908 36.5862C117.908 39.3782 117.112 41.7145 114.142 41.7145C111.173 41.7145 110.376 39.3782 110.376 36.5862V24.7023H105.017V37.7316C105.017 42.8145 109.145 45.7776 114.142 45.7776C119.139 45.7776 123.268 42.8145 123.268 37.7316V24.7023H117.908V36.5862Z" fill="#F2F2F2"/>
<path d="M86.257 17.5806H77.9497V45.2738H86.257C95.1458 45.2738 101.832 42.4081 101.832 31.4086C101.832 20.4074 95.1458 17.5806 86.257 17.5806ZM86.0261 40.9964H83.4759V21.8588H86.0261C91.1264 21.8588 96.1121 23.1192 96.1121 31.4086C96.1121 39.7724 91.1264 40.9964 86.0261 40.9964Z" fill="#F2F2F2"/>
<path d="M136.923 41.6829C133.987 41.6829 131.9 39.277 131.9 34.9607C131.9 30.6825 134.103 28.3527 136.884 28.3527C138.933 28.3527 140.787 29.7661 141.213 31.7526H146.313C145.579 26.6722 141.251 24.2655 136.884 24.2655C130.663 24.2655 126.451 28.7728 126.451 35.0368C126.451 41.2635 130.431 45.7709 136.653 45.7709C140.98 45.7709 145.27 43.8993 146.506 38.2829H141.406C140.672 40.7276 138.777 41.6829 136.923 41.6829Z" fill="#F2F2F2"/>
<path d="M168.529 24.7237H162.539L154.966 32.975V17.5806H149.633V45.2738H154.966V39.0859L157.516 36.3741L162.965 45.2738H168.955L161.072 32.5929L168.529 24.7237Z" fill="#F2F2F2"/>
<path d="M179.462 17.5806H171.155V45.2738H179.462C188.351 45.2738 195.037 42.4081 195.037 31.4086C195.037 20.4074 188.351 17.5806 179.462 17.5806ZM179.231 40.9964H176.681V21.8588H179.231C184.331 21.8588 189.317 23.1192 189.317 31.4086C189.317 39.7724 184.331 40.9964 179.231 40.9964Z" fill="#F2F2F2"/>
<path d="M216.827 30.6444C218.257 29.728 219.996 27.3975 219.996 24.8006C219.996 19.1089 214.701 17.5806 209.794 17.5806H198.897V45.2738H210.257C216.016 45.2738 221 43.059 221 37.0994C221 33.2801 218.99 31.6757 216.827 30.6444ZM204.423 21.8588H210.141C212.73 21.8588 214.316 23.1573 214.316 25.3348C214.316 27.7795 212.77 29.0019 210.141 29.0019H204.423V21.8588ZM210.528 40.9964H204.423V33.1263H210.297C213.736 33.1263 215.359 34.5025 215.359 37.0994C215.359 39.6591 213.774 40.9964 210.528 40.9964Z" fill="#F2F2F2"/>
</g>
<defs>
<clipPath id="clip0_105_3803">
<rect width="221" height="63" fill="white"/>
</clipPath>
</defs>
</svg>
