<svg width="142" height="104" viewBox="0 0 142 104" fill="none" xmlns="http://www.w3.org/2000/svg">
<path d="M70.9995 63.0937C53.5771 63.0937 39.4526 48.9694 39.4526 31.5469C39.4526 14.1244 53.5053 0 70.9995 0C88.4937 0 102.546 14.1244 102.546 31.5469C102.546 48.9694 88.422 63.0937 70.9995 63.0937Z" fill="#FFF100"/>
<path d="M51.3564 31.5476C51.3564 38.7891 57.2356 44.5965 64.4054 44.5965C71.5751 44.5965 77.4543 38.7174 77.4543 31.5476C77.4543 24.3778 71.5751 18.4987 64.4054 18.4987C57.2356 18.4987 51.3564 24.3778 51.3564 31.5476Z" fill="#1A1A1A"/>
<path d="M87.8853 26.8516H81.6836V36.2441H87.8853C90.479 36.2441 92.5815 34.1415 92.5815 31.5478C92.5815 28.9542 90.479 26.8516 87.8853 26.8516Z" fill="#1A1A1A"/>
<path d="M39.5601 94.3924C39.5601 97.1886 38.7714 99.5283 35.8319 99.5283C32.8922 99.5283 32.1035 97.1886 32.1035 94.3924V82.4906H26.7979V95.5395C26.7979 100.63 30.8847 103.598 35.8319 103.598C40.7789 103.598 44.8657 100.63 44.8657 95.5395V82.4906H39.5601V94.3924Z" fill="#F2F2F2"/>
<path d="M8.22469 75.3619H0.000976562V103.093H8.22469C17.0222 103.093 23.6395 100.224 23.6395 89.2084C23.6395 78.1924 17.0222 75.3619 8.22469 75.3619ZM7.99518 98.8092H5.47076V79.6459H7.99518C13.0442 79.6459 17.9784 80.9081 17.9784 89.2084C17.9784 97.5851 13.0442 98.8092 7.99518 98.8092Z" fill="#F2F2F2"/>
<path d="M58.7705 99.4988C55.8636 99.4988 53.798 97.089 53.798 92.7667C53.798 88.4828 55.9783 86.1495 58.7323 86.1495C60.7596 86.1495 62.5956 87.5648 63.0163 89.5538H68.0653C67.3386 84.4665 63.0546 82.0568 58.7323 82.0568C52.5741 82.0568 48.4048 86.5703 48.4048 92.8432C48.4048 99.078 52.3445 103.592 58.5028 103.592C62.7867 103.592 67.0325 101.717 68.2564 96.0946H63.2076C62.4807 98.5426 60.6066 99.4988 58.7705 99.4988Z" fill="#F2F2F2"/>
<path d="M90.0568 82.5147H84.1281L76.6311 90.7766V75.3619H71.3525V103.093H76.6311V96.8967L79.1556 94.1809L84.5488 103.093H90.4775L82.6745 90.3941L90.0568 82.5147Z" fill="#F2F2F2"/>
<path d="M100.884 75.3619H92.6602V103.093H100.884C109.681 103.093 116.299 100.224 116.299 89.2084C116.299 78.1924 109.681 75.3619 100.884 75.3619ZM100.655 98.8092H98.13V79.6459H100.655C105.704 79.6459 110.638 80.9081 110.638 89.2084C110.638 97.5851 105.704 98.8092 100.655 98.8092Z" fill="#F2F2F2"/>
<path d="M137.867 88.4434C139.282 87.5254 141.004 85.1922 141.004 82.5912C141.004 76.8919 135.764 75.3619 130.906 75.3619H120.119V103.093H131.365C137.064 103.093 141.998 100.875 141.998 94.9077C141.998 91.0827 140.009 89.4762 137.867 88.4434ZM125.589 79.6459H131.25C133.813 79.6459 135.381 80.9464 135.381 83.1266C135.381 85.5746 133.851 86.7986 131.25 86.7986H125.589V79.6459ZM131.632 98.8092H125.589V90.9296H131.403C134.807 90.9296 136.414 92.3067 136.414 94.9077C136.414 97.4704 134.845 98.8092 131.632 98.8092Z" fill="#F2F2F2"/>
</svg>
