<svg width="391" height="880" viewBox="0 0 391 880" fill="none" xmlns="http://www.w3.org/2000/svg">
<g clip-path="url(#clip0_14444_23725)">
<rect width="391" height="880" fill="url(#paint0_linear_14444_23725)"/>
<path d="M34.1689 682.069H68.085C79.3814 682.069 88.5389 672.912 88.5391 661.615V601.148C88.5391 588.033 87.3918 573.771 85.0957 558.36C82.7991 543.517 79.9289 528.959 76.4844 514.688C73.2974 502.012 70.1112 490.559 66.9258 480.33C66.3965 478.63 66.9596 476.776 68.3555 475.666C69.8836 474.45 72.0346 474.419 73.6045 475.573C82.1972 481.894 91.7562 488.455 102.281 495.258L102.286 495.262C114.344 503.255 126.689 510.676 139.321 517.527L139.328 517.531C152.525 524.948 165.139 530.649 177.173 534.638V534.637L177.185 534.642L234.271 555.051C244.868 558.839 256.535 553.354 260.38 542.777L271.911 511.054C275.785 500.397 270.25 488.623 259.573 484.806L202.697 464.472C191.939 460.728 179.917 457.233 166.628 453.988L163.969 453.347C151.049 450.67 138.129 448.495 125.209 446.822L122.646 446.497C110.126 445.46 98.7881 444.421 88.6328 443.384C86.5401 443.17 84.7043 441.9 83.7598 440.022H83.7588C82.4454 437.411 83.1482 434.245 85.4043 432.398C93.0438 426.147 101.329 418.828 110.26 410.441L110.271 410.432L110.282 410.422C121.184 401.293 131.512 391.308 141.268 380.467L141.277 380.456L141.288 380.446C151.614 370.179 160.213 359.917 167.088 349.662L167.096 349.651L202.229 300.108C208.821 290.812 206.544 277.921 197.166 271.445L169.617 252.422C160.404 246.06 147.787 248.288 141.31 257.421L105.881 307.381C98.9985 317.646 92.1132 329.341 85.2256 342.466C78.907 355.603 72.875 368.739 67.1309 381.876C62.4344 393.81 58.4505 404.564 55.1777 414.137C54.5226 416.053 52.7249 417.349 50.6963 417.35C48.6671 417.35 46.872 416.053 46.209 414.142C42.89 404.573 38.6211 393.821 33.4023 381.886L33.3984 381.876L33.3945 381.867C28.2287 368.74 22.2017 355.612 15.3125 342.482L15.3086 342.475L15.3047 342.466C8.9936 329.345 2.11158 317.655 -5.33984 307.396L-5.34668 307.389L-39.9639 257.668C-46.401 248.423 -59.1027 246.122 -68.373 252.523L-95.9248 271.549C-105.246 277.985 -107.561 290.771 -101.089 300.067L-66.5635 349.655L-66.5625 349.657C-59.1103 360.487 -50.2222 371.036 -39.8965 381.304L-39.8867 381.313C-29.5499 392.163 -19.214 402.154 -8.87988 411.288L-8.87793 411.29C0.813569 419.912 9.37272 427.408 16.7988 433.778C18.6165 435.338 19.2132 437.897 18.2646 440.098C17.483 441.911 15.7833 443.163 13.8174 443.364C3.61201 444.409 -7.79167 445.453 -20.3926 446.497H-20.3936C-34.1611 448.209 -48.216 450.491 -62.5586 453.343C-75.4799 456.555 -87.6423 460.017 -99.0459 463.729L-101.317 464.476L-157.415 484.76C-168.051 488.606 -173.547 500.354 -169.684 510.983L-158.151 542.707C-154.297 553.311 -142.583 558.792 -131.973 554.955L-75.7949 534.642L-75.7813 534.638C-63.7504 530.65 -51.4261 524.95 -38.8076 517.536L-38.7949 517.529L-38.7832 517.523C-25.579 510.673 -12.9493 503.253 -0.894531 495.262L-0.887695 495.257L-0.879883 495.252C10.0881 488.501 19.6259 481.989 27.7344 475.717C29.3224 474.489 31.5503 474.483 33.1279 475.738C34.4718 476.808 35.0556 478.569 34.6182 480.229C31.9157 490.487 28.9662 501.973 25.7695 514.688C22.3249 528.959 19.4539 543.517 17.1572 558.36H17.1582C14.8622 573.771 13.7149 588.033 13.7148 601.148V661.615C13.715 672.912 22.8725 682.069 34.1689 682.069Z" fill="url(#paint1_linear_14444_23725)" stroke="url(#paint2_linear_14444_23725)" stroke-width="1.04894"/>
<path d="M348.893 312.34H282.751V183.665H149.867V119.327H282.751V-9.94922H348.893V119.327H481.175V183.665H348.893V312.34Z" fill="url(#paint3_linear_14444_23725)"/>
<path d="M347.844 182.615H480.126V120.375H347.844V-8.90137H283.8V120.375H150.916V182.615H283.8V311.29H347.844V182.615ZM348.893 312.339H282.751V183.664H149.867V119.326H282.751V-9.9502H348.893V119.326H481.175V183.664H348.893V312.339Z" fill="url(#paint4_linear_14444_23725)"/>
<rect x="-218.995" y="-222.636" width="463.819" height="463.819" rx="231.91" fill="url(#paint5_linear_14444_23725)" stroke="url(#paint6_linear_14444_23725)" stroke-width="1.04894"/>
<rect x="236.893" y="998.438" width="450.52" height="296.823" rx="20.4543" transform="rotate(180 236.893 998.438)" fill="url(#paint7_linear_14444_23725)" stroke="url(#paint8_linear_14444_23725)" stroke-width="1.04894"/>
<path d="M402.697 528.263H424.332V579.783H409.724C393.493 579.783 383.035 582.216 376.66 588.399C370.279 594.589 368.123 604.407 368.123 618.786V696.827C368.123 721.705 363.672 738.244 355.722 749.432C347.781 760.606 336.295 766.518 322.042 770.023L321.643 770.122V772.57L322.042 772.668C336.295 776.173 347.781 782.086 355.722 793.26C363.672 804.447 368.123 820.987 368.123 845.864V924.989C368.123 939.101 370.281 948.915 376.658 955.171C383.031 961.422 393.488 963.992 409.724 963.992H424.332V1014.97H402.697C367.307 1014.97 343.435 1010.22 328.392 996.947C313.368 983.69 307.019 961.806 307.019 927.157V852.91C307.019 836.389 305.811 822.298 299.988 812.338C294.18 802.402 283.847 796.676 265.942 796.566V746.124C283.847 746.015 294.18 740.291 299.988 730.354C305.811 720.395 307.019 706.304 307.019 689.782V616.076C307.019 581.428 313.368 559.544 328.392 546.287C343.435 533.013 367.307 528.263 402.697 528.263Z" fill="url(#paint9_linear_14444_23725)" stroke="url(#paint10_linear_14444_23725)" stroke-width="1.04894"/>
</g>
<defs>
<linearGradient id="paint0_linear_14444_23725" x1="191.916" y1="-45.2816" x2="173.998" y2="1071.1" gradientUnits="userSpaceOnUse">
<stop stop-color="#FDEF00"/>
<stop offset="0.938633" stop-color="#FFFAA3"/>
</linearGradient>
<linearGradient id="paint1_linear_14444_23725" x1="196.005" y1="365.007" x2="-33.136" y2="354.529" gradientUnits="userSpaceOnUse">
<stop stop-color="#FDEF00"/>
<stop offset="1" stop-color="#FFFAA3"/>
</linearGradient>
<linearGradient id="paint2_linear_14444_23725" x1="137.634" y1="211.203" x2="71.303" y2="682.637" gradientUnits="userSpaceOnUse">
<stop stop-color="#BFB531"/>
<stop offset="0.456828" stop-color="#FFEF1B"/>
<stop offset="1" stop-color="#BFB531"/>
</linearGradient>
<linearGradient id="paint3_linear_14444_23725" x1="540.633" y1="78.7462" x2="264.345" y2="-67.5304" gradientUnits="userSpaceOnUse">
<stop stop-color="#FDEF00"/>
<stop offset="0.938633" stop-color="#FFFAA3"/>
</linearGradient>
<linearGradient id="paint4_linear_14444_23725" x1="400.758" y1="22.032" x2="146.712" y2="188.193" gradientUnits="userSpaceOnUse">
<stop stop-color="#FFEF1B"/>
<stop offset="0.96659" stop-color="#BFB531"/>
</linearGradient>
<linearGradient id="paint5_linear_14444_23725" x1="-12.084" y1="307.65" x2="-51.8146" y2="-56.233" gradientUnits="userSpaceOnUse">
<stop offset="0.0613673" stop-color="#FFFAA3"/>
<stop offset="1" stop-color="#FDEF00"/>
</linearGradient>
<linearGradient id="paint6_linear_14444_23725" x1="16.8608" y1="9.27389" x2="229.258" y2="248.927" gradientUnits="userSpaceOnUse">
<stop stop-color="#FFEF1B"/>
<stop offset="1" stop-color="#BFB531"/>
</linearGradient>
<linearGradient id="paint7_linear_14444_23725" x1="724.402" y1="1112" x2="496.89" y2="1531.2" gradientUnits="userSpaceOnUse">
<stop stop-color="#FDEF00"/>
<stop offset="0.938633" stop-color="#FFFAA3"/>
</linearGradient>
<linearGradient id="paint8_linear_14444_23725" x1="356.796" y1="1681.29" x2="535.079" y2="1074.64" gradientUnits="userSpaceOnUse">
<stop stop-color="#BFB531"/>
<stop offset="1" stop-color="#FFEF1B"/>
</linearGradient>
<linearGradient id="paint9_linear_14444_23725" x1="433.351" y1="754.173" x2="432.163" y2="561.464" gradientUnits="userSpaceOnUse">
<stop offset="0.0613673" stop-color="#FFFAA3"/>
<stop offset="1" stop-color="#FDEF00"/>
</linearGradient>
<linearGradient id="paint10_linear_14444_23725" x1="308.871" y1="361.435" x2="124.352" y2="1073.99" gradientUnits="userSpaceOnUse">
<stop stop-color="#BFB531"/>
<stop offset="1" stop-color="#FFEF1B"/>
</linearGradient>
<clipPath id="clip0_14444_23725">
<rect width="391" height="880" fill="white"/>
</clipPath>
</defs>
</svg>
