<svg width="1440" height="880" viewBox="0 0 1440 880" fill="none" xmlns="http://www.w3.org/2000/svg">
<g clip-path="url(#clip0_14385_24319)">
<rect width="1440" height="880" fill="url(#paint0_linear_14385_24319)"/>
<path d="M102.123 304.996V551.485H354.345V672.156H102.123V917.5H-21.9873V672.156H-275.355V551.485H-21.9873V304.996H102.123Z" fill="url(#paint1_linear_14385_24319)" stroke="url(#paint2_linear_14385_24319)" stroke-width="2"/>
<rect x="-333.543" y="-422.495" width="818.495" height="818.495" rx="409.247" fill="url(#paint3_linear_14385_24319)" stroke="url(#paint4_linear_14385_24319)" stroke-width="2"/>
<rect x="1239" y="1181" width="859" height="488" rx="39" transform="rotate(180 1239 1181)" fill="url(#paint5_linear_14385_24319)" stroke="url(#paint6_linear_14385_24319)" stroke-width="2"/>
<path d="M320.5 -48.6113L320.5 32.6113C320.5 54.1504 337.961 71.6113 359.5 71.6113L492.561 71.6113C520.435 71.6113 550.746 69.1739 583.494 64.2949C615.04 59.4141 645.979 53.3129 676.311 45.9922C703.247 39.2199 727.583 32.4492 749.321 25.6797C752.889 24.5687 756.78 25.7497 759.11 28.6787C761.661 31.8853 761.726 36.4007 759.303 39.6953C745.871 57.9561 731.927 78.2696 717.472 100.636L717.466 100.645C700.479 126.269 684.706 152.504 670.146 179.349L670.143 179.355L670.14 179.361C654.377 207.408 642.26 234.22 633.782 259.798L633.779 259.809L633.775 259.819L588.875 385.408C581.651 405.614 592.108 427.861 612.275 435.191L688.289 462.822C708.608 470.208 731.058 459.656 738.336 439.298L783.091 314.116C791.579 289.726 799.464 262.278 806.744 231.77C812.806 202.503 817.656 173.237 821.294 143.972C823.498 117.371 825.704 93.283 827.908 71.7071C828.359 67.299 831.033 63.4319 834.989 61.4424C840.491 58.6762 847.158 60.1553 851.048 64.9082C864.334 81.1439 879.888 98.7505 897.71 117.729L897.729 117.749L897.747 117.772C917.148 140.941 938.368 162.892 961.409 183.625L961.43 183.644L961.449 183.663C983.271 205.609 1005.08 223.886 1026.88 238.5L1026.89 238.507L1026.9 238.515L1135.95 315.85C1153.68 328.419 1178.26 324.077 1190.61 306.196L1236.23 240.123C1248.36 222.555 1244.11 198.499 1226.7 186.149L1116.83 108.236C1095.01 93.6107 1070.16 78.9804 1042.27 64.3448C1014.36 50.9218 986.452 38.1084 958.545 25.9053C933.18 15.9235 910.325 7.45499 889.978 0.499048C885.952 -0.877361 883.229 -4.6544 883.228 -8.91599C883.228 -13.1783 885.953 -16.9497 889.969 -18.3427C910.306 -25.3965 933.156 -34.4674 958.519 -45.5576L958.535 -45.5654L958.553 -45.5722C986.45 -56.5507 1014.35 -69.3603 1042.25 -84.0009L1042.27 -84.0088L1042.28 -84.0166C1070.17 -97.4294 1095.01 -112.056 1116.82 -127.894L1116.83 -127.899L1116.84 -127.905L1226.23 -204.07C1243.86 -216.344 1248.24 -240.561 1236.04 -258.236L1190.41 -324.315C1178.14 -342.088 1153.76 -346.502 1136.03 -334.161L1026.89 -258.174L1026.89 -258.171C1004.59 -242.826 982.852 -224.618 961.676 -203.543L959.608 -201.476C936.552 -179.509 915.319 -157.545 895.908 -135.583L895.906 -135.581C877.584 -114.987 861.655 -96.7991 848.119 -81.0185C844.838 -77.1936 839.453 -75.9378 834.822 -77.9336C831.007 -79.578 828.373 -83.1533 827.95 -87.289C825.731 -108.972 823.512 -133.2 821.294 -159.973C817.655 -189.245 812.803 -219.129 806.738 -249.625C799.46 -278.9 791.577 -306.342 783.089 -331.951L738.425 -455.479C731.092 -475.759 708.692 -486.239 688.425 -478.872L612.41 -451.24C592.191 -443.891 581.742 -421.556 589.058 -401.325L633.773 -277.655L633.778 -277.643L633.782 -277.63C642.258 -252.057 654.372 -225.861 670.13 -199.042L670.143 -199.02L670.155 -198.996C684.713 -170.935 700.484 -144.096 717.466 -118.478L717.483 -118.448C731.831 -95.14 745.67 -74.8711 759 -57.6377C761.578 -54.3042 761.589 -49.6288 758.956 -46.3183C756.712 -43.4978 753.016 -42.2715 749.531 -43.1894C730.459 -48.2142 709.388 -53.641 686.319 -59.4697L676.311 -61.9922C645.979 -69.3128 615.04 -75.414 583.494 -80.2949C550.746 -85.1739 520.435 -87.6113 492.562 -87.6113L359.5 -87.6113C337.961 -87.6113 320.5 -70.1504 320.5 -48.6113Z" fill="url(#paint7_linear_14385_24319)" stroke="url(#paint8_linear_14385_24319)" stroke-width="2"/>
<rect x="1792" y="358" width="756" height="608" rx="39" transform="rotate(180 1792 358)" fill="url(#paint9_linear_14385_24319)" stroke="url(#paint10_linear_14385_24319)" stroke-width="2"/>
<path d="M1472.43 138H1513.68V236.233H1485.83C1454.88 236.233 1434.94 240.871 1422.79 252.661C1410.62 264.463 1406.51 283.182 1406.51 310.6V459.4C1406.51 506.834 1398.02 538.37 1382.87 559.7C1367.73 581.005 1345.82 592.278 1318.65 598.962L1317.89 599.149V603.817L1318.65 604.004C1345.82 610.688 1367.73 621.961 1382.87 643.267C1398.02 664.597 1406.51 696.132 1406.51 743.566V894.434C1406.51 921.34 1410.62 940.052 1422.78 951.98C1434.93 963.9 1454.87 968.8 1485.83 968.8H1513.68V1066H1472.43C1404.95 1066 1359.44 1056.94 1330.76 1031.63C1302.11 1006.36 1290 964.63 1290 898.566V757C1290 725.498 1287.7 698.632 1276.6 679.642C1265.52 660.697 1245.82 649.779 1211.68 649.57V553.395C1245.82 553.186 1265.52 542.27 1276.6 523.325C1287.7 504.335 1290 477.469 1290 445.967V305.434C1290 239.37 1302.11 197.644 1330.76 172.366C1359.44 147.056 1404.95 138 1472.43 138Z" fill="url(#paint11_linear_14385_24319)" stroke="url(#paint12_linear_14385_24319)" stroke-width="2"/>
</g>
<defs>
<linearGradient id="paint0_linear_14385_24319" x1="706.8" y1="-45.2816" x2="701.934" y2="1071.37" gradientUnits="userSpaceOnUse">
<stop stop-color="#FDEF00"/>
<stop offset="0.938633" stop-color="#FFFAA3"/>
</linearGradient>
<linearGradient id="paint1_linear_14385_24319" x1="454.756" y1="374.862" x2="88.7907" y2="202.263" gradientUnits="userSpaceOnUse">
<stop stop-color="#FDEF00"/>
<stop offset="0.938633" stop-color="#FFFAA3"/>
</linearGradient>
<linearGradient id="paint2_linear_14385_24319" x1="368.535" y1="431.367" x2="-154.061" y2="725.626" gradientUnits="userSpaceOnUse">
<stop offset="0.0334104" stop-color="#BFB531"/>
<stop offset="1" stop-color="#FFEF1B"/>
</linearGradient>
<linearGradient id="paint3_linear_14385_24319" x1="31.582" y1="513.387" x2="-38.5428" y2="-128.868" gradientUnits="userSpaceOnUse">
<stop offset="0.0613673" stop-color="#FFFAA3"/>
<stop offset="1" stop-color="#FDEF00"/>
</linearGradient>
<linearGradient id="paint4_linear_14385_24319" x1="-381.289" y1="-94.3436" x2="608.444" y2="476.73" gradientUnits="userSpaceOnUse">
<stop stop-color="#FFEF1B"/>
<stop offset="1" stop-color="#BFB531"/>
</linearGradient>
<linearGradient id="paint5_linear_14385_24319" x1="2168.53" y1="1367.95" x2="1825.69" y2="2100.12" gradientUnits="userSpaceOnUse">
<stop stop-color="#FDEF00"/>
<stop offset="0.938633" stop-color="#FFFAA3"/>
</linearGradient>
<linearGradient id="paint6_linear_14385_24319" x1="1766.46" y1="1783.52" x2="1797.69" y2="1279.63" gradientUnits="userSpaceOnUse">
<stop stop-color="#BFB531"/>
<stop offset="1" stop-color="#FFEF1B"/>
</linearGradient>
<linearGradient id="paint7_linear_14385_24319" x1="328.122" y1="415.768" x2="923.294" y2="240.71" gradientUnits="userSpaceOnUse">
<stop stop-color="#FFFAA3"/>
<stop offset="1" stop-color="#FDEF00"/>
</linearGradient>
<linearGradient id="paint8_linear_14385_24319" x1="601.798" y1="-45.3209" x2="660.458" y2="544.258" gradientUnits="userSpaceOnUse">
<stop stop-color="#BFB531"/>
<stop offset="1" stop-color="#FFEF1B"/>
</linearGradient>
<linearGradient id="paint9_linear_14385_24319" x1="2067.67" y1="889.165" x2="2171.61" y2="212.773" gradientUnits="userSpaceOnUse">
<stop stop-color="#FDEF00"/>
<stop offset="0.938633" stop-color="#FFFAA3"/>
</linearGradient>
<linearGradient id="paint10_linear_14385_24319" x1="2172" y1="359" x2="1702.76" y2="668.811" gradientUnits="userSpaceOnUse">
<stop stop-color="#BFB531"/>
<stop offset="1" stop-color="#FFEF1B"/>
</linearGradient>
<linearGradient id="paint11_linear_14385_24319" x1="1530.88" y1="568.739" x2="1528.61" y2="201.305" gradientUnits="userSpaceOnUse">
<stop offset="0.0613673" stop-color="#FFFAA3"/>
<stop offset="1" stop-color="#FDEF00"/>
</linearGradient>
<linearGradient id="paint12_linear_14385_24319" x1="1131.1" y1="578.437" x2="2456.05" y2="805.32" gradientUnits="userSpaceOnUse">
<stop stop-color="#BFB531"/>
<stop offset="1" stop-color="#FFEF1B"/>
</linearGradient>
<clipPath id="clip0_14385_24319">
<rect width="1440" height="880" fill="white"/>
</clipPath>
</defs>
</svg>
