<svg width="1200" height="515" viewBox="0 0 1200 515" fill="none" xmlns="http://www.w3.org/2000/svg">
<g clip-path="url(#clip0_16349_8316)">
<g clip-path="url(#clip1_16349_8316)">
<rect width="1200" height="515" fill="url(#paint0_linear_16349_8316)"/>
<path d="M794.496 -399.098C794.496 -399.924 793.826 -400.594 792.999 -400.594C792.173 -400.594 791.503 -399.924 791.503 -399.098L792.999 -399.098L794.496 -399.098ZM791.942 89.4604C792.526 90.0447 793.474 90.0447 794.058 89.4604L803.58 79.938C804.165 79.3536 804.165 78.4062 803.58 77.8219C802.996 77.2376 802.049 77.2376 801.464 77.8219L793 86.2863L784.536 77.8219C783.951 77.2376 783.004 77.2376 782.42 77.8219C781.835 78.4062 781.835 79.3537 782.42 79.938L791.942 89.4604ZM792.999 -399.098L791.503 -399.098L791.504 88.4023L793 88.4023L794.496 88.4023L794.496 -399.098L792.999 -399.098Z" fill="#F0DF09"/>
<path d="M534.999 -473.862L619.612 -473.862C655.51 -473.862 684.612 -444.761 684.612 -408.862L684.612 -199C684.612 -163.102 713.713 -134 749.612 -134L816 -134C851.899 -134 881 -104.899 881 -69L881 108.5C881 144.398 910.102 173.5 946 173.5L1208 173.5" stroke="#F0DF09" stroke-width="2.9926"/>
<path d="M603 749.902L782.688 749.902C818.586 749.902 847.688 720.801 847.688 684.902L847.688 496.402C847.688 460.504 876.789 431.402 912.688 431.402L985 431.402C1020.9 431.402 1050 402.301 1050 366.402L1050 -148.098" stroke="#F0DF09" stroke-width="2.9926"/>
<path d="M372 631.403L372 512.5C372 476.602 342.898 447.5 307 447.5L166 447.501C130.102 447.501 101 418.399 101 382.501L101 149.965C101 114.066 130.102 84.9648 166 84.9648L483.244 84.9649C519.142 84.9649 548.244 55.8634 548.244 19.9649L548.244 -373.097C548.244 -408.996 577.345 -438.097 613.244 -438.097L793 -438.097" stroke="#F0DF09" stroke-width="2.9926"/>
<rect x="92.9619" y="245.866" width="16.0762" height="38.0762" rx="8.0381" fill="#D4C50B" stroke="#F0DF09" stroke-width="1.92382"/>
<path d="M1115.4 127.28C1114.71 127.28 1114.15 127.075 1113.72 126.664C1113.31 126.253 1113.1 125.721 1113.1 125.068C1113.1 124.377 1113.31 123.817 1113.72 123.388C1114.15 122.959 1114.71 122.744 1115.4 122.744C1116.09 122.744 1116.64 122.959 1117.05 123.388C1117.48 123.817 1117.7 124.377 1117.7 125.068C1117.7 125.721 1117.48 126.253 1117.05 126.664C1116.64 127.075 1116.09 127.28 1115.4 127.28ZM1128.75 124.116L1126.81 122.744L1128.63 120.14C1128.88 119.804 1129.2 119.393 1129.61 118.908C1130.04 118.423 1130.44 117.993 1130.82 117.62C1130.29 117.545 1129.74 117.433 1129.17 117.284C1128.59 117.135 1128.13 116.995 1127.79 116.864L1124.8 115.744L1125.58 113.532L1128.61 114.652C1128.92 114.764 1129.34 114.941 1129.87 115.184C1130.39 115.427 1130.86 115.679 1131.29 115.94C1131.2 115.455 1131.13 114.96 1131.07 114.456C1131.03 113.933 1131.01 113.495 1131.01 113.14V109.64H1133.37V113.14C1133.37 113.495 1133.34 113.933 1133.28 114.456C1133.23 114.96 1133.15 115.455 1133.06 115.94C1133.51 115.679 1133.98 115.427 1134.49 115.184C1135.01 114.941 1135.44 114.764 1135.77 114.652L1138.8 113.532L1139.58 115.744L1136.59 116.864C1136.25 116.995 1135.79 117.135 1135.21 117.284C1134.63 117.433 1134.08 117.545 1133.56 117.62C1133.93 117.993 1134.34 118.432 1134.77 118.936C1135.19 119.421 1135.52 119.823 1135.75 120.14L1137.57 122.744L1135.63 124.116L1133.81 121.484C1133.59 121.167 1133.32 120.728 1133 120.168C1132.68 119.608 1132.41 119.085 1132.19 118.6C1131.97 119.085 1131.69 119.608 1131.38 120.168C1131.06 120.709 1130.79 121.148 1130.57 121.484L1128.75 124.116Z" fill="#F3E223"/>
<path d="M548.493 881.278C548.493 882.104 549.163 882.774 549.989 882.774C550.815 882.774 551.485 882.104 551.485 881.278L549.989 881.278L548.493 881.278ZM551.046 392.72C550.462 392.135 549.515 392.135 548.93 392.72L539.408 402.242C538.823 402.827 538.823 403.774 539.408 404.358C539.992 404.943 540.94 404.943 541.524 404.358L549.988 395.894L558.453 404.358C559.037 404.943 559.984 404.943 560.569 404.358C561.153 403.774 561.153 402.827 560.569 402.242L551.046 392.72ZM549.989 881.278L551.485 881.278L551.485 393.778L549.988 393.778L548.492 393.778L548.493 881.278L549.989 881.278Z" fill="#F0DF09"/>
</g>
<path d="M410.929 326.477C372.278 326.477 341.064 295.264 341.064 256.613C341.064 217.962 372.278 186.749 410.929 186.749C449.579 186.749 480.793 217.962 480.793 256.613C480.793 295.264 449.579 326.477 410.929 326.477Z" fill="black"/>
<path d="M448.285 246.248H434.58V266.931H448.285C453.968 266.931 458.69 262.21 458.69 256.527C458.69 250.803 453.968 246.248 448.285 246.248Z" fill="#FFF100"/>
<path d="M367.428 256.614C367.428 272.576 380.423 285.571 396.385 285.571C412.346 285.571 425.341 272.576 425.341 256.614C425.341 240.652 412.346 227.657 396.385 227.657C380.423 227.657 367.428 240.652 367.428 256.614Z" fill="#FFF100"/>
<path d="M516.621 274.113V239.098H526.023C528.293 239.098 530.26 239.545 531.923 240.441C533.618 241.304 534.929 242.535 535.856 244.134C536.783 245.701 537.247 247.556 537.247 249.698V263.465C537.247 265.607 536.783 267.478 535.856 269.077C534.929 270.676 533.618 271.923 531.923 272.818C530.26 273.682 528.293 274.113 526.023 274.113H516.621ZM521.37 269.892H526.023C528.037 269.892 529.62 269.317 530.772 268.165C531.923 267.014 532.498 265.447 532.498 263.465V249.698C532.498 247.716 531.923 246.165 530.772 245.046C529.62 243.894 528.037 243.319 526.023 243.319H521.37V269.892ZM555.504 274.593C552.402 274.593 549.923 273.682 548.069 271.859C546.214 270.036 545.287 267.558 545.287 264.424V247.732H550.035V264.424C550.035 266.279 550.515 267.75 551.474 268.837C552.466 269.892 553.809 270.42 555.504 270.42C557.23 270.42 558.589 269.892 559.581 268.837C560.572 267.75 561.068 266.279 561.068 264.424V247.732H565.816V264.424C565.816 267.558 564.873 270.036 562.986 271.859C561.132 273.682 558.637 274.593 555.504 274.593ZM584.696 274.593C581.467 274.593 578.876 273.698 576.926 271.907C574.975 270.084 574 267.59 574 264.424V257.373C574 254.239 574.975 251.777 576.926 249.986C578.876 248.163 581.467 247.252 584.696 247.252C587.798 247.252 590.292 248.083 592.179 249.746C594.098 251.377 595.105 253.616 595.201 256.462H590.5C590.404 254.863 589.829 253.632 588.774 252.768C587.75 251.873 586.391 251.425 584.696 251.425C582.874 251.425 581.419 251.953 580.331 253.008C579.276 254.031 578.749 255.486 578.749 257.373V264.424C578.749 266.343 579.276 267.814 580.331 268.837C581.419 269.86 582.874 270.372 584.696 270.372C586.423 270.372 587.798 269.94 588.822 269.077C589.845 268.213 590.404 266.982 590.5 265.383H595.201C595.105 268.229 594.098 270.484 592.179 272.147C590.292 273.778 587.798 274.593 584.696 274.593ZM603.145 274.113V239.098H607.893V258.476H612.738L619.837 247.732H625.209L616.911 260.347L625.641 274.113H620.173L612.786 262.553H607.893V274.113H603.145ZM631.666 274.113V239.098H641.068C643.338 239.098 645.305 239.545 646.967 240.441C648.662 241.304 649.973 242.535 650.901 244.134C651.828 245.701 652.292 247.556 652.292 249.698V263.465C652.292 265.607 651.828 267.478 650.901 269.077C649.973 270.676 648.662 271.923 646.967 272.818C645.305 273.682 643.338 274.113 641.068 274.113H631.666ZM636.415 269.892H641.068C643.082 269.892 644.665 269.317 645.816 268.165C646.967 267.014 647.543 265.447 647.543 263.465V249.698C647.543 247.716 646.967 246.165 645.816 245.046C644.665 243.894 643.082 243.319 641.068 243.319H636.415V269.892ZM660.475 274.113V239.098H670.596C673.826 239.098 676.368 239.913 678.223 241.544C680.11 243.143 681.053 245.349 681.053 248.163C681.053 249.986 680.477 251.617 679.326 253.056C678.207 254.463 676.752 255.326 674.961 255.646V255.79C676.304 255.95 677.487 256.43 678.511 257.229C679.566 258.029 680.381 259.052 680.957 260.299C681.565 261.514 681.868 262.857 681.868 264.328C681.868 267.334 680.909 269.716 678.99 271.475C677.104 273.234 674.529 274.113 671.268 274.113H660.475ZM665.128 253.871H670.548C672.339 253.871 673.746 253.408 674.769 252.48C675.793 251.521 676.304 250.226 676.304 248.595C676.304 246.932 675.793 245.637 674.769 244.71C673.746 243.75 672.355 243.271 670.596 243.271H665.128V253.871ZM665.128 269.94H670.836C672.787 269.94 674.322 269.429 675.441 268.405C676.56 267.35 677.12 265.927 677.12 264.136C677.12 262.282 676.56 260.779 675.441 259.627C674.322 258.476 672.787 257.901 670.836 257.901H665.128V269.94ZM717.998 274.113V269.796H727.351V243.367L717.95 250.37V244.998L725.912 239.098H732.1V269.796H739.774V274.113H717.998ZM756.88 274.593C755.665 274.593 754.673 274.225 753.906 273.49C753.17 272.754 752.803 271.811 752.803 270.66C752.803 269.445 753.17 268.453 753.906 267.686C754.673 266.918 755.665 266.535 756.88 266.535C758.095 266.535 759.07 266.918 759.806 267.686C760.573 268.453 760.957 269.445 760.957 270.66C760.957 271.811 760.573 272.754 759.806 273.49C759.07 274.225 758.095 274.593 756.88 274.593ZM785.401 274.593C782.107 274.593 779.501 273.698 777.582 271.907C775.664 270.084 774.704 267.622 774.704 264.52H779.453C779.453 266.343 779.981 267.782 781.036 268.837C782.123 269.86 783.578 270.372 785.401 270.372C787.256 270.372 788.711 269.844 789.766 268.789C790.853 267.734 791.397 266.295 791.397 264.472V262.266C791.397 260.443 790.869 259.004 789.814 257.949C788.791 256.893 787.384 256.366 785.593 256.366H775.904V239.098H794.898V243.415H780.317L780.412 252.097H785.833C789.094 252.097 791.621 252.992 793.411 254.783C795.234 256.542 796.146 259.036 796.146 262.266V264.472C796.146 267.606 795.17 270.084 793.22 271.907C791.301 273.698 788.695 274.593 785.401 274.593ZM814.402 274.593C813.187 274.593 812.196 274.225 811.428 273.49C810.693 272.754 810.325 271.811 810.325 270.66C810.325 269.445 810.693 268.453 811.428 267.686C812.196 266.918 813.187 266.535 814.402 266.535C815.617 266.535 816.592 266.918 817.328 267.686C818.095 268.453 818.479 269.445 818.479 270.66C818.479 271.811 818.095 272.754 817.328 273.49C816.592 274.225 815.617 274.593 814.402 274.593ZM842.923 274.593C839.63 274.593 837.023 273.698 835.105 271.907C833.186 270.084 832.227 267.622 832.227 264.52H836.975C836.975 266.343 837.503 267.782 838.558 268.837C839.646 269.86 841.101 270.372 842.923 270.372C844.778 270.372 846.233 269.844 847.288 268.789C848.376 267.734 848.919 266.295 848.919 264.472V262.266C848.919 260.443 848.392 259.004 847.336 257.949C846.313 256.893 844.906 256.366 843.115 256.366H833.426V239.098H852.421V243.415H837.839L837.935 252.097H843.355C846.617 252.097 849.143 252.992 850.934 254.783C852.756 256.542 853.668 259.036 853.668 262.266V264.472C853.668 267.606 852.693 270.084 850.742 271.907C848.823 273.698 846.217 274.593 842.923 274.593Z" fill="black"/>
</g>
<defs>
<linearGradient id="paint0_linear_16349_8316" x1="589" y1="-26.5" x2="587" y2="627" gradientUnits="userSpaceOnUse">
<stop stop-color="#FDEF00"/>
<stop offset="0.938633" stop-color="#FFFAA3"/>
</linearGradient>
<clipPath id="clip0_16349_8316">
<rect width="1200" height="514.29" fill="white"/>
</clipPath>
<clipPath id="clip1_16349_8316">
<rect width="1200" height="515" fill="white"/>
</clipPath>
</defs>
</svg>
