<svg width="560" height="240" viewBox="0 0 560 240" fill="none" xmlns="http://www.w3.org/2000/svg">
<g clip-path="url(#clip0_8483_38537)">
<rect width="560" height="240" fill="#FFF100"/>
<g clip-path="url(#clip1_8483_38537)">
<rect width="560" height="240" fill="#FFF100"/>
<path d="M333 49.847L333 -0.999985C333 -12.0457 341.954 -21 353 -21L583 -21C594.046 -21 603 -12.0457 603 -1.00001L603 175C603 186.046 594.046 195 583 195L504.429 195C493.383 195 484.429 186.046 484.429 175L484.429 89.8471C484.429 78.8014 475.474 69.8471 464.429 69.8471L353 69.8471C341.954 69.8471 333 60.8927 333 49.847Z" fill="#EDDD0C"/>
<path d="M84.4164 123.352L51.5 123.352C40.4543 123.352 31.5 114.397 31.5 103.352L31.5 66.9999C31.5 55.9542 40.4543 46.9999 51.5 46.9999L102.5 46.9999C113.546 46.9999 122.5 38.0456 122.5 26.9999L122.5 -34.0001C122.5 -45.0458 113.546 -54.0001 102.5 -54.0001L-26 -54.0001C-37.0457 -54.0001 -46 -45.0457 -46 -34.0001L-46 241.5C-46 252.546 -37.0457 261.5 -26 261.5L222 261.5C233.046 261.5 242 252.546 242 241.5L242 206.5C242 195.454 233.046 186.5 222 186.5L124.416 186.5C113.371 186.5 104.416 177.546 104.416 166.5L104.416 143.352C104.416 132.306 95.4621 123.352 84.4164 123.352Z" fill="#EDDD0C"/>
</g>
<rect x="247" y="87" width="65" height="65" rx="10" fill="#0D0D0D"/>
<rect x="282" y="96.5" width="20" height="20.5" rx="2" fill="#FFF100"/>
<rect x="282" y="122" width="20" height="20.5" rx="2" fill="#FFF100"/>
<path d="M291.92 110.815C293.495 110.815 294.395 109.315 294.395 106.555C294.395 103.795 293.495 102.295 291.92 102.295C290.36 102.295 289.46 103.795 289.46 106.555C289.46 109.315 290.36 110.815 291.92 110.815ZM291.92 112.195C289.04 112.195 287.6 109.9 287.6 106.555C287.6 103.24 289.04 100.93 291.92 100.93C294.83 100.93 296.255 103.24 296.255 106.555C296.255 109.9 294.83 112.195 291.92 112.195Z" fill="black"/>
<path d="M293.585 130.62C293.585 129.165 292.685 128.295 291.47 128.295C290.21 128.295 289.34 129.165 289.34 130.62C289.34 132.06 290.21 132.945 291.455 132.945C292.655 132.945 293.585 132.045 293.585 130.62ZM291.35 136.815C292.835 136.815 293.675 135.33 293.72 133.11C293.24 133.815 292.37 134.355 291.11 134.355C289.115 134.355 287.495 132.915 287.495 130.635C287.495 128.475 289.115 126.93 291.455 126.93C294.275 126.93 295.535 129.06 295.535 132.24C295.535 135.375 294.38 138.195 291.2 138.195C288.92 138.195 287.87 136.71 287.705 135.27H289.52C289.64 136.335 290.375 136.815 291.35 136.815Z" fill="black"/>
<path d="M267 100L273.928 112H260.072L267 100Z" fill="#FFF100"/>
<path d="M267 138L260.072 126H273.928L267 138Z" fill="#FFF100"/>
</g>
<defs>
<clipPath id="clip0_8483_38537">
<rect width="560" height="240" fill="white"/>
</clipPath>
<clipPath id="clip1_8483_38537">
<rect width="560" height="240" fill="white"/>
</clipPath>
</defs>
</svg>
